<svg width="312" height="69" viewBox="0 0 312 69" fill="none" xmlns="http://www.w3.org/2000/svg">
<path d="M10.4366 33.8928L9.36864 48.0874V48.2793C9.36864 48.8867 9.59517 49.2863 10.0482 49.4781L13.0578 50.725L12.5724 55.0889H0.485422L0 50.8209L2.23294 49.4781L4.99985 30.9676C5.03221 30.7438 5.04839 30.472 5.04839 30.1523C5.04839 29.7687 4.9513 29.481 4.75713 29.2891C4.59533 29.0973 4.27171 28.8575 3.78629 28.5698L1.55335 27.323L1.8446 22.7673H15.7762L22.7177 45.1142L29.6107 22.7673H42.62L42.8142 27.8025L39.7075 28.5698L42.3288 47.3681C42.4259 48.0075 42.5553 48.5031 42.7171 48.8547C42.9113 49.2064 43.332 49.7819 43.9792 50.5811L44.9986 51.8759L44.7074 55.0889H30.2418L29.8049 50.677L33.7854 49.67L32.1349 33.6051L25.9215 55.2807L17.6208 56L10.4366 33.8928Z" fill="#FF9300"/>
<path d="M46.839 50.8209L48.3438 49.9097L59.7027 22.7193L67.9549 22L77.6633 47.8956C77.9869 48.7268 78.2135 49.2703 78.3429 49.5261C78.4724 49.7819 78.7151 50.1335 79.071 50.5811L79.9448 51.6841L79.6536 55.0889H66.0132L65.5278 50.5331L68.9743 49.67L67.4209 44.8265L57.5669 44.9704L56.4989 47.9915C56.4018 48.2793 56.3533 48.519 56.3533 48.7109C56.3533 48.9347 56.3857 49.1105 56.4504 49.2384C56.5475 49.3343 56.6931 49.4142 56.8873 49.4781L60.2367 50.8688L59.7513 55.0889H47.0332L46.839 50.8209ZM62.7123 30.2003L59.5086 39.4076L65.7705 39.6953L62.7123 30.2003Z" fill="#FF9300"/>
<path d="M81.9422 50.1975L85.4858 49.2384V30.9676C85.4858 30.1363 85.4211 29.5929 85.2917 29.3371C85.1622 29.0494 84.8224 28.7936 84.2723 28.5698L81.7481 27.1791L82.0393 23.2948C84.4988 22.9111 86.8288 22.6394 89.0294 22.4796C91.23 22.2877 93.5924 22.1918 96.1166 22.1918C99.6116 22.1918 102.411 22.5595 104.514 23.2948C106.65 24.0301 108.204 25.181 109.174 26.7475C110.178 28.3141 110.679 30.3921 110.679 32.9817C110.679 35.8937 109.754 38.2644 107.903 40.0938C107.62 40.3732 107.316 40.64 106.99 40.8942C104.563 42.8124 101.23 43.7715 96.9903 43.7715L94.3205 43.6756V47.3202C94.3205 48.0874 94.369 48.583 94.4661 48.8068C94.5956 49.0306 94.8868 49.2543 95.3399 49.4781L98.301 51.2045L98.1068 55.0889H82.185L81.9422 50.1975ZM97.4272 38.4485C99.1747 38.4485 100.453 38.2727 101.262 37.921C101.618 36.3545 101.796 34.708 101.796 32.9817C101.796 31.0954 101.424 29.7527 100.68 28.9535C99.9676 28.1542 98.8026 27.7546 97.1845 27.7546C96.6343 27.7546 95.6797 27.8185 94.3205 27.9464V38.1608C95.1943 38.3526 96.2298 38.4485 97.4272 38.4485Z" fill="#FF9300"/>
<path d="M112.886 50.0536L115.944 49.2384V30.8717C115.944 30.0404 115.879 29.4969 115.75 29.2412C115.653 28.9535 115.345 28.6977 114.828 28.4739L112.789 27.323L112.935 22.7673H128.08L128.322 27.6587L124.73 28.6178V49.3343L130.847 49.1904C130.847 49.1904 131.681 48.2494 132.6 47.2139C132.805 46.9826 133.014 46.7466 133.219 46.5153C134.138 45.4798 134.973 44.5388 134.973 44.5388L138.71 44.7306C138.646 47.4161 138.419 50.8688 138.031 55.0889H113.129L112.886 50.0536Z" fill="#FF9300"/>
<path d="M141.234 50.1975L144.777 49.2384V30.8717C144.777 30.0404 144.713 29.4969 144.583 29.2412C144.454 28.9535 144.114 28.6977 143.564 28.4739L141.137 27.0832L141.282 22.7673H167.641C167.867 26.1241 167.981 29.401 167.981 32.598L164.388 32.8378L160.942 28.6178L153.612 28.426V36.2426L163.952 35.3794V42.7645L153.612 41.6615V49.3822L161.67 49.2384C161.67 49.2384 162.406 48.4076 163.225 47.4833C163.432 47.2487 163.646 47.008 163.853 46.7734C164.672 45.8491 165.408 45.0183 165.408 45.0183L169 45.2581C168.871 48.615 168.628 51.8919 168.272 55.0889H141.477L141.234 50.1975Z" fill="#FF9300"/>
<path d="M175 25.8917C175 22.6749 174.894 19.3777 174.682 16L168 23.1083C168.212 26.4859 168.318 29.7832 168.318 33L175 25.8917Z" fill="#FF9300"/>
<path d="M171.656 25.2626L175 25L168.344 32.7374L165 33L171.656 25.2626Z" fill="#FF9300"/>
<path d="M167.748 22L171 26.1137L164.252 33L161 28.8863L167.748 22Z" fill="#FF9300"/>
<path d="M175 16H149.042L142 23H167.958L175 16Z" fill="#FF9300"/>
<path d="M160.914 21L168 21.185L161.086 28L154 27.815L160.914 21Z" fill="#FF9300"/>
<path d="M171 35.6664V28L165 35.3336V43L171 35.6664Z" fill="#FF9300"/>
<path d="M171 28L160.95 28.8711L154 36L164.05 35.1289L171 28Z" fill="#FF9300"/>
<path d="M176 38.2298L172.656 38L166 44.7702L169.344 45L176 38.2298Z" fill="#FF9300"/>
<path d="M161 28.8791V21L154 28.1209V36L161 28.8791Z" fill="#FF9300"/>
<path d="M171 38L169.929 39.7909L165 47L166.071 45.2091L171 38Z" fill="#FF9300"/>
<path d="M175.353 47.8917C175.669 44.6749 175.885 41.3777 176 38L169.647 45.1083C169.532 48.4859 169.316 51.7832 169 55L175.353 47.8917Z" fill="#FF9300"/>
<path d="M160.95 35L171 36.0804L164.05 43L154 41.9196L160.95 35Z" fill="#FF9300"/>
<path d="M148 16L147.88 20.1717L142 27L142.12 22.8283L148 16Z" fill="#FF9300"/>
<path d="M171 41L170.434 41.5479L164 47L164.566 46.4521L171 41Z" fill="#FF9300"/>
<path d="M151.002 21C151.541 21.2 151.873 21.4286 152 21.6858L144.998 28C144.871 27.7428 144.539 27.5142 144 27.3142L151.002 21Z" fill="#FF9300"/>
<path d="M152.789 22C152.93 22.2647 153 22.8273 153 23.6877L145.211 31C145.211 30.1396 145.141 29.5771 145 29.3123L152.789 22Z" fill="#FF9300"/>
<path d="M149.466 20L152 21.3158L144.534 28L142 26.6842L149.466 20Z" fill="#FF9300"/>
<path d="M170 41L168.75 42.592L163 49L164.25 47.408L170 41Z" fill="#FF9300"/>
<path d="M169 42L161.053 42.1397L154 49L161.947 48.8603L169 42Z" fill="#FF9300"/>
<path d="M161 42.3107V35L154 41.6893V49L161 42.3107Z" fill="#FF9300"/>
<path d="M153 24V42.0553L145 49V30.9447L153 24Z" fill="#FF9300"/>
<path d="M136 20.9095L135.77 16L129 23.0905L129.23 28L136 20.9095Z" fill="#FF9300"/>
<path d="M148.952 48H175L168.048 55H142L148.952 48Z" fill="#FF9300"/>
<path d="M132.322 21.8367L136 21L128.678 27.1633L125 28L132.322 21.8367Z" fill="#FF9300"/>
<path d="M135 16H120.056L113 23H127.944L135 16Z" fill="#FF9300"/>
<path d="M153 42L149.355 42.9563L142 50L145.645 49.0437L153 42Z" fill="#FF9300"/>
<path d="M146 37.2115L142.224 37L135 44.7885L138.776 45L146 37.2115Z" fill="#FF9300"/>
<path d="M148.77 43L149 47.9095L142.23 55L142 50.0905L148.77 43Z" fill="#FF9300"/>
<path d="M143 37L141.228 38.9676L134 46L135.772 44.0324L143 37Z" fill="#FF9300"/>
<path d="M145.306 48.107C145.702 43.9893 145.934 40.6203 146 38L138.694 44.893C138.628 47.5134 138.397 50.8823 138 55L145.306 48.107Z" fill="#FF9300"/>
<path d="M121 16L120.84 20.3126L113 27L113.16 22.6874L121 16Z" fill="#FF9300"/>
<path d="M122.086 21C122.599 21.2 122.904 21.4286 123 21.6858L115.914 28C115.818 27.7428 115.513 27.5142 115 27.3142L122.086 21Z" fill="#FF9300"/>
<path d="M120.003 20L122 21.1208L114.997 28L113 26.8792L120.003 20Z" fill="#FF9300"/>
<path d="M141 39L140.362 39.7199L133 47L133.638 46.2801L141 39Z" fill="#FF9300"/>
<path d="M122.815 22C122.938 22.2647 123 22.8273 123 23.6877L116.185 31C116.185 30.1396 116.123 29.5771 116 29.3123L122.815 22Z" fill="#FF9300"/>
<path d="M132 42.1342V22L125 28.8658V49L132 42.1342Z" fill="#FF9300"/>
<path d="M141 41L139.031 42.749L131 49L132.969 47.251L141 41Z" fill="#FF9300"/>
<path d="M116 19.6113C115.014 17.9728 113.435 16.7691 111.265 16L104 23.3887C106.17 24.1578 107.748 25.3616 108.735 27L116 19.6113Z" fill="#FF9300"/>
<path d="M119 26.0942C119 23.5627 118.478 21.5314 117.435 20L110 26.9058C111.043 28.4372 111.565 30.4686 111.565 33L119 26.0942Z" fill="#FF9300"/>
<path d="M138 42L132.007 42.1397L125 49L130.993 48.8603L138 42Z" fill="#FF9300"/>
<path d="M112 16.0804C109.971 15.3601 107.27 15 103.899 15L97 21.9196C100.372 21.9196 103.072 22.2798 105.101 23L112 16.0804Z" fill="#FF9300"/>
<path d="M123 24V42.0553L116 49V30.9447L123 24Z" fill="#FF9300"/>
<path d="M116.203 33.5252C118.068 31.5896 119 29.0812 119 26L111.797 33.4748C111.797 36.5559 110.864 39.0643 109 41L116.203 33.5252Z" fill="#FF9300"/>
<path d="M104.717 21C106.237 21 107.331 21.3385 108 22.0156L101.283 28C100.614 27.3229 99.5199 26.9844 98 26.9844L104.717 21Z" fill="#FF9300"/>
<path d="M103 15C100.518 15 98.1951 15.0913 96.0314 15.2739L89 22C91.1638 21.8174 93.4867 21.7261 95.9686 21.7261L103 15Z" fill="#FF9300"/>
<path d="M107.92 22C108.64 22.7926 109 24.1241 109 25.9946L102.08 33C102.08 31.1295 101.72 29.798 101 29.0054L107.92 22Z" fill="#FF9300"/>
<path d="M120.362 48H146L138.638 55H113L120.362 48Z" fill="#FF9300"/>
<path d="M101.426 21.185C102.648 21.0617 103.506 21 104 21L97.5737 27.815C97.0794 27.815 96.2214 27.8766 95 28L101.426 21.185Z" fill="#FF9300"/>
<path d="M114.207 33.8142C114.489 33.5568 114.752 33.2866 114.997 33.0036L108.793 40.1858C108.547 40.47 108.283 40.7414 108 41L114.207 33.8142Z" fill="#FF9300"/>
<path d="M109 26C109 27.7258 108.815 29.3718 108.444 30.9378L101 38C101.371 36.434 101.556 34.788 101.556 33.0622L109 26Z" fill="#FF9300"/>
<path d="M123 42L120.004 42.8277L113 50L115.996 49.1723L123 42Z" fill="#FF9300"/>
<path d="M97 15C94.6657 15.1623 92.1942 15.4382 89.5853 15.8277L82 23C84.6089 22.6105 87.0804 22.3346 89.4147 22.1723L97 15Z" fill="#FF9300"/>
<path d="M102 31.0496V21L95 27.9504V38L102 31.0496Z" fill="#FF9300"/>
<path d="M109 31C108.19 31.3243 106.91 31.4864 105.16 31.4864L98 38C99.7498 38 101.03 37.8379 101.84 37.5136L109 31Z" fill="#FF9300"/>
<path d="M120.737 43L121 47.9938L113.263 55L113 50.0062L120.737 43Z" fill="#FF9300"/>
<path d="M104.671 36.8942C108.626 36.8942 111.736 35.9294 114 34L107.329 41.1058C105.065 43.0353 101.955 44 98 44L104.671 36.8942Z" fill="#FF9300"/>
<path d="M104 31.2739C102.949 31.2739 102.041 31.1826 101.274 31L95 37.7261C95.7666 37.9087 96.6752 38 97.7258 38L104 31.2739Z" fill="#FF9300"/>
<path d="M89 16L88.7261 19.9025L82 27L82.2739 23.0975L89 16Z" fill="#FF9300"/>
<path d="M91.1266 21C91.598 21.2 91.8891 21.4286 92 21.6858L85.8734 28C85.7625 27.7428 85.4713 27.5142 85 27.3142L91.1266 21Z" fill="#FF9300"/>
<path d="M92.815 22C92.9383 22.2647 93 22.8273 93 23.6877L86.185 31C86.185 30.1396 86.1234 29.5771 86 29.3123L92.815 22Z" fill="#FF9300"/>
<path d="M88.6519 20L91 21.3158L84.3481 28L82 26.6842L88.6519 20Z" fill="#FF9300"/>
<path d="M101.553 37L104 37.0938L97.4467 44L95 43.9062L101.553 37Z" fill="#FF9300"/>
<path d="M102 40.4033V37L95 43.5967V47L102 40.4033Z" fill="#FF9300"/>
<path d="M106 43.7675L103.072 42L96 49.2325L98.9283 51L106 43.7675Z" fill="#FF9300"/>
<path d="M102 42.3908C101.907 42.1814 101.86 41.7178 101.86 41L95 47.6092C95 48.327 95.0466 48.7906 95.1397 49L102 42.3908Z" fill="#FF9300"/>
<path d="M103 42.6075C102.548 42.405 102.258 42.2025 102.129 42L95 48.3925C95.129 48.595 95.4194 48.7975 95.8711 49L103 42.6075Z" fill="#FF9300"/>
<path d="M93 24V42.0291L86 49V30.9709L93 24Z" fill="#FF9300"/>
<path d="M105.815 47.9025L106 44L99.185 51.0975L99 55L105.815 47.9025Z" fill="#FF9300"/>
<path d="M76 15L67.428 15.7393L60 23L68.572 22.2607L76 15Z" fill="#FF9300"/>
<path d="M85 40.927L75.2106 15L68 22.073L77.7894 48L85 40.927Z" fill="#FF9300"/>
<path d="M89.4383 48H106L98.5617 55H82L89.4383 48Z" fill="#FF9300"/>
<path d="M93 42L89.3552 42.9563L82 50L85.6448 49.0437L93 42Z" fill="#FF9300"/>
<path d="M70.7049 23L74 33.321L66.2951 41L63 30.679L70.7049 23Z" fill="#FF9300"/>
<path d="M89.7374 43L90 47.9095L82.2626 55L82 50.0905L89.7374 43Z" fill="#FF9300"/>
<path d="M86 42.6877C85.8678 42.4229 85.6363 41.8604 85.3057 41L78 48.3123C78.3306 49.1727 78.562 49.7353 78.6943 50L86 42.6877Z" fill="#FF9300"/>
<path d="M87 43.1694C86.6386 42.6733 86.3921 42.2835 86.2607 42L79 49.8306C79.1314 50.1141 79.3779 50.5039 79.7393 51L87 43.1694Z" fill="#FF9300"/>
<path d="M88 44.0804L87.02 43L79 49.9196L79.98 51L88 44.0804Z" fill="#FF9300"/>
<path d="M66.5966 32.0536L70 23L62.4034 29.9464L59 39L66.5966 32.0536Z" fill="#FF9300"/>
<path d="M87.6869 48.2522L88 45L80.3131 51.7478L80 55L87.6869 48.2522Z" fill="#FF9300"/>
<path d="M74 32.3522L66.9971 32L59 40.6478L66.0029 41L74 32.3522Z" fill="#FF9300"/>
<path d="M75.3939 38L77 42.8809L69.6061 50L68 45.1191L75.3939 38Z" fill="#FF9300"/>
<path d="M67 16L55.3403 42.9881L48 50L59.6597 23.0119L67 16Z" fill="#FF9300"/>
<path d="M51 20.9938L50.7885 16L43 23.0062L43.2115 28L51 20.9938Z" fill="#FF9300"/>
<path d="M73.2227 48H87L79.7773 55H66L73.2227 48Z" fill="#FF9300"/>
<path d="M65.1488 38.1397L75 38L67.8512 44.8603L58 45L65.1488 38.1397Z" fill="#FF9300"/>
<path d="M77 43L73.4226 43.8711L66 51L69.5774 50.1289L77 43Z" fill="#FF9300"/>
<path d="M50 16H37.0941L30 23H42.9059L50 16Z" fill="#FF9300"/>
<path d="M47.6685 21.6858L51 21L43.3315 27.3142L40 28L47.6685 21.6858Z" fill="#FF9300"/>
<path d="M73.4915 43L74 47.7046L66.5085 55L66 50.2954L73.4915 43Z" fill="#FF9300"/>
<path d="M63.9605 40.9955L65 38L58.0395 45.0045L57 48L63.9605 40.9955Z" fill="#FF9300"/>
<path d="M68 43.4803L64.4912 42L57 49.5197L60.5088 51L68 43.4803Z" fill="#FF9300"/>
<path d="M63.8603 41.7393C63.8603 41.5422 63.9069 41.2957 64 41L57.1397 48.2607C57.0466 48.5564 57 48.8029 57 49L63.8603 41.7393Z" fill="#FF9300"/>
<path d="M64 42.4864C63.9375 42.3685 63.9062 42.2063 63.9062 42L57 48.5136C57 48.72 57.0313 48.8821 57.0938 49L64 42.4864Z" fill="#FF9300"/>
<path d="M65 42.2298C64.7953 42.1685 64.6417 42.0919 64.5394 42L57 48.7702C57.1024 48.8621 57.2559 48.9387 57.4606 49L65 42.2298Z" fill="#FF9300"/>
<path d="M67.4915 48.1137L68 44L60.5085 50.8863L60 55L67.4915 48.1137Z" fill="#FF9300"/>
<path d="M50 39.8981L47.3176 21L40 28.1019L42.6824 47L50 39.8981Z" fill="#FF9300"/>
<path d="M54.1981 48H67L59.8019 55H47L54.1981 48Z" fill="#FF9300"/>
<path d="M56 43L54.4353 43.9139L47 51L48.5647 50.0861L56 43Z" fill="#FF9300"/>
<path d="M51 42.3908C50.8283 42.0618 50.691 41.5982 50.5879 41L43 47.6092C43.103 48.2074 43.2404 48.671 43.4121 49L51 42.3908Z" fill="#FF9300"/>
<path d="M54.7885 44L55 48.1428L47.2115 55L47 50.8572L54.7885 44Z" fill="#FF9300"/>
<path d="M52 43.7675C51.3076 42.9492 50.8576 42.36 50.6498 42L43 49.2325C43.2077 49.5926 43.6578 50.1817 44.3502 51L52 43.7675Z" fill="#FF9300"/>
<path d="M53 44.2391L51.8771 43L44 49.7609L45.1229 51L53 44.2391Z" fill="#FF9300"/>
<path d="M37 16L30.1286 38.0344L23 45L29.8714 22.9656L37 16Z" fill="#FF9300"/>
<path d="M39.3123 26L41 42.6696L33.6877 50L32 33.3304L39.3123 26Z" fill="#FF9300"/>
<path d="M52.6869 48.1263L53 45L45.3131 51.8737L45 55L52.6869 48.1263Z" fill="#FF9300"/>
<path d="M23 16H9.12294L2 23H15.8771L23 16Z" fill="#FF9300"/>
<path d="M30 38.0344L22.6114 16L15 22.9656L22.3886 45L30 38.0344Z" fill="#FF9300"/>
<path d="M33.4911 47.8717L40 26L32.5089 33.1283L26 55L33.4911 47.8717Z" fill="#FF9300"/>
<path d="M37.947 48H52L45.053 55H31L37.947 48Z" fill="#FF9300"/>
<path d="M41 43L37.0665 43.9981L30 51L33.9335 50.0019L41 43Z" fill="#FF9300"/>
<path d="M36.597 44L37 48.2288L30.403 55L30 50.7712L36.597 44Z" fill="#FF9300"/>
<path d="M9 16L8.72605 20.3126L2 27L2.27395 22.6874L9 16Z" fill="#FF9300"/>
<path d="M11.0437 21C11.5219 21.2588 11.8406 21.4744 12 21.6469L4.95629 28C4.79691 27.8275 4.47814 27.6119 4 27.3531L11.0437 21Z" fill="#FF9300"/>
<path d="M11.6869 22C11.8956 22.1936 12 22.4839 12 22.8711L4.31308 30C4.31308 29.6129 4.20872 29.3225 4 29.1289L11.6869 22Z" fill="#FF9300"/>
<path d="M8.85841 20L11 21.2001L4.14159 28L2 26.7999L8.85841 20Z" fill="#FF9300"/>
<path d="M12 23C12 23.3246 11.9865 23.6005 11.9595 23.8277L6 31C6.02697 30.7728 6.04045 30.4969 6.04045 30.1723L12 23Z" fill="#FF9300"/>
<path d="M17.9837 27L25 48.9771L18.0163 56L11 34.0229L17.9837 27Z" fill="#FF9300"/>
<path d="M16.9605 41.0217L18 27L11.0395 33.9783L10 48L16.9605 41.0217Z" fill="#FF9300"/>
<path d="M24.9419 48.7393L33 48L26.0581 55.2607L18 56L24.9419 48.7393Z" fill="#FF9300"/>
<path d="M12 24L9.21018 42.0944L2 49L4.78982 30.9056L12 24Z" fill="#FF9300"/>
<path d="M21 43.3502L17.7417 42L10 49.6498L13.2583 51L21 43.3502Z" fill="#FF9300"/>
<path d="M17 41.185V41L10 47.815V48L17 41.185Z" fill="#FF9300"/>
<path d="M18 42.1607C17.5371 41.975 17.3057 41.5881 17.3057 41L10 47.8393C10 48.4274 10.2314 48.8143 10.6943 49L18 42.1607Z" fill="#FF9300"/>
<path d="M20.4915 48.2003L21 44L13.5085 50.7997L13 55L20.4915 48.2003Z" fill="#FF9300"/>
<path d="M8.06249 48H20L12.9375 55H1L8.06249 48Z" fill="#FF9300"/>
<path d="M10 42L7.62045 43.4374L0 51L2.37955 49.5626L10 42Z" fill="#FF9300"/>
<path d="M7.49146 44L8 48.1428L0.508537 55L0 50.8572L7.49146 44Z" fill="#FF9300"/>
<path d="M18.4987 26.784L17.4427 40.992V41.184C17.4427 41.792 17.6667 42.192 18.1147 42.384L21.0907 43.632L20.6107 48H8.65869L8.17869 43.728L10.3867 42.384L13.1227 23.856C13.1547 23.632 13.1707 23.36 13.1707 23.04C13.1707 22.656 13.0747 22.368 12.8827 22.176C12.7227 21.984 12.4027 21.744 11.9227 21.456L9.71469 20.208L10.0027 15.648H23.7787L30.6427 38.016L37.4587 15.648H50.3227L50.5147 20.688L47.4427 21.456L50.0347 40.272C50.1307 40.912 50.2587 41.408 50.4187 41.76C50.6107 42.112 51.0267 42.688 51.6667 43.488L52.6747 44.784L52.3867 48H38.0827L37.6507 43.584L41.5867 42.576L39.9547 26.496L33.8107 48.192L25.6027 48.912L18.4987 26.784ZM54.4946 43.728L55.9826 42.816L67.2146 15.6L75.3746 14.88L84.9746 40.8C85.2946 41.632 85.5186 42.176 85.6466 42.432C85.7746 42.688 86.0146 43.04 86.3666 43.488L87.2306 44.592L86.9426 48H73.4546L72.9746 43.44L76.3826 42.576L74.8466 37.728L65.1026 37.872L64.0466 40.896C63.9506 41.184 63.9026 41.424 63.9026 41.616C63.9026 41.84 63.9346 42.016 63.9986 42.144C64.0946 42.24 64.2386 42.32 64.4306 42.384L67.7426 43.776L67.2626 48H54.6866L54.4946 43.728ZM70.1906 23.088L67.0226 32.304L73.2146 32.592L70.1906 23.088ZM89.2057 43.104L92.7097 42.144V23.856C92.7097 23.024 92.6457 22.48 92.5177 22.224C92.3897 21.936 92.0537 21.68 91.5097 21.456L89.0137 20.064L89.3017 16.176C91.7337 15.792 94.0377 15.52 96.2137 15.36C98.3897 15.168 100.726 15.072 103.222 15.072C106.678 15.072 109.446 15.44 111.526 16.176C113.638 16.912 115.174 18.064 116.134 19.632C117.126 21.2 117.622 23.28 117.622 25.872C117.622 29.232 116.406 31.872 113.974 33.792C111.574 35.712 108.278 36.672 104.086 36.672L101.446 36.576V40.224C101.446 40.992 101.494 41.488 101.59 41.712C101.718 41.936 102.006 42.16 102.454 42.384L105.382 44.112L105.19 48H89.4457L89.2057 43.104ZM104.518 31.344C106.246 31.344 107.51 31.168 108.31 30.816C108.662 29.248 108.838 27.6 108.838 25.872C108.838 23.984 108.47 22.64 107.734 21.84C107.03 21.04 105.878 20.64 104.278 20.64C103.734 20.64 102.79 20.704 101.446 20.832V31.056C102.31 31.248 103.334 31.344 104.518 31.344ZM119.804 42.96L122.828 42.144V23.76C122.828 22.928 122.764 22.384 122.636 22.128C122.54 21.84 122.236 21.584 121.724 21.36L119.708 20.208L119.852 15.648H134.828L135.068 20.544L131.516 21.504V42.24L137.564 42.096L141.644 37.44L145.34 37.632C145.276 40.32 145.052 43.776 144.668 48H120.044L119.804 42.96ZM147.835 43.104L151.339 42.144V23.76C151.339 22.928 151.275 22.384 151.147 22.128C151.019 21.84 150.683 21.584 150.139 21.36L147.739 19.968L147.883 15.648H173.947C174.171 19.008 174.283 22.288 174.283 25.488L170.731 25.728L167.323 21.504L160.075 21.312V29.136L170.299 28.272V35.664L160.075 34.56V42.288L168.043 42.144L171.739 37.92L175.291 38.16C175.163 41.52 174.923 44.8 174.571 48H148.075L147.835 43.104Z" fill="url(#paint0_linear_17_2)"/>
<path d="M182.155 53.5321L184.975 52.7618V38.087C184.975 37.4194 184.923 36.9829 184.82 36.7775C184.717 36.5464 184.447 36.3409 184.009 36.1612L182 35.0442L182.232 31.8859C186.095 31.321 189.817 31.0385 193.397 31.0385C196.179 31.0385 198.42 31.321 200.12 31.8859C201.819 32.4251 203.056 33.2853 203.828 34.4665C204.627 35.622 205.026 37.1626 205.026 39.0884C205.026 40.6805 204.614 42.0799 203.79 43.2867C203.55 43.6307 203.28 43.9518 202.981 44.2501C202.254 44.976 201.351 45.5664 200.274 46.0214L206.456 55.9586L206.417 57.4608H199.385L193.668 47.1769L191.968 47.1384V51.4522C191.968 52.0685 192.006 52.4665 192.084 52.6462C192.187 52.8003 192.418 52.98 192.779 53.1855L194.44 54.1484L194.286 57.4608H182.348L182.155 53.5321ZM194.44 42.8245C195.805 42.8245 196.81 42.6961 197.454 42.4394C197.711 41.515 197.84 40.4108 197.84 39.127C197.84 37.8431 197.557 36.9315 196.99 36.3923C196.449 35.8531 195.535 35.5835 194.247 35.5835C193.526 35.5835 192.792 35.622 192.045 35.699V42.5934C192.715 42.7475 193.513 42.8245 194.44 42.8245Z" fill="#74A7FE"/>
<path d="M220.435 58C216.159 58 212.965 56.9215 210.853 54.7646C208.767 52.6077 207.724 49.3338 207.724 44.9429C207.724 42.0927 208.252 39.6277 209.308 37.5478C209.901 36.3662 210.635 35.3382 211.512 34.4639C212.197 33.7802 212.969 33.1905 213.828 32.6947C215.786 31.5649 218.117 31 220.821 31C229.424 31 233.725 35.378 233.725 44.1341C233.725 47.01 233.197 49.4879 232.141 51.5678C231.578 52.6761 230.88 53.646 230.047 54.4773C229.316 55.2059 228.482 55.8281 227.543 56.3438C225.56 57.4479 223.191 58 220.435 58ZM221.246 52.6847C222.714 52.6847 224.118 52.3124 225.457 51.5678C225.74 50.7718 225.959 49.7832 226.114 48.602C226.268 47.3952 226.346 46.214 226.346 45.0585C226.346 42.2083 225.805 40.0514 224.723 38.5877C223.667 37.1241 222.109 36.3923 220.048 36.3923C218.58 36.3923 217.164 36.6619 215.798 37.2011C215.515 37.689 215.296 38.4979 215.142 39.6277C214.987 40.7318 214.91 42.0029 214.91 43.4408C214.91 46.4194 215.451 48.7047 216.533 50.2967C217.614 51.8887 219.185 52.6847 221.246 52.6847Z" fill="#74A7FE"/>
<path d="M244.526 57.923C241.692 57.923 238.821 57.4864 235.91 56.6134C236.039 54.0713 236.245 51.709 236.528 49.5264L239.503 48.9486L241.435 52.2225C242.98 52.7618 244.345 53.0314 245.53 53.0314C245.942 53.0314 246.818 52.9158 248.157 52.6847C248.209 52.1712 248.234 51.8245 248.234 51.6448C248.234 51.0285 248.131 50.5663 247.925 50.2582C247.719 49.9244 247.269 49.5649 246.573 49.1797C245.878 48.7689 244.629 48.1655 242.826 47.3695C240.611 46.291 239.014 45.1355 238.035 43.903C237.056 42.6448 236.567 41.1683 236.567 39.4736C236.567 37.1055 237.29 35.2006 238.735 33.7589C238.904 33.5904 239.083 33.4283 239.271 33.2725C241.074 31.7832 243.547 31.0385 246.689 31.0385C248.209 31.0385 249.715 31.1926 251.209 31.5007C252.729 31.7832 254.055 32.1812 255.189 32.6947C255.137 34.1327 255.021 35.9173 254.841 38.0485L254.725 39.7047L251.905 40.1284L248.969 36.3923C248.041 36.1098 246.882 35.9686 245.491 35.9686C244.616 35.9686 243.959 36.0456 243.521 36.1997C243.392 36.7133 243.328 37.1113 243.328 37.3937C243.328 37.9586 243.47 38.4593 243.753 38.8959C244.036 39.3067 244.538 39.7432 245.26 40.2054C245.981 40.6419 247.05 41.194 248.466 41.8616C250.527 42.8374 252.085 43.6976 253.141 44.4422C254.197 45.1869 254.931 45.97 255.343 46.7917C255.781 47.5877 256 48.5635 256 49.719C256 51.7982 255.319 53.5167 253.958 54.8745C253.655 55.1767 253.318 55.4611 252.948 55.7275C250.913 57.1912 248.106 57.923 244.526 57.923Z" fill="#74A7FE"/>
<path d="M263 25.2852C261.782 24.7324 260.357 24.304 258.724 24L251 31.7148C252.633 32.0188 254.058 32.4472 255.276 33L263 25.2852Z" fill="#74A7FE"/>
<path d="M262.631 31.131C262.822 29.0885 262.945 27.3781 263 26L255.369 32.869C255.314 34.2471 255.191 35.9574 255 38L262.631 31.131Z" fill="#74A7FE"/>
<path d="M258 24.4241C256.469 24.1414 254.925 24 253.368 24L246 30.5759C247.557 30.5759 249.101 30.7173 250.632 31L258 24.4241Z" fill="#74A7FE"/>
<path d="M260.905 32.8771L261 31L255.095 39.1229L255 41L260.905 32.8771Z" fill="#74A7FE"/>
<path d="M258.464 32.5023L261 32L254.536 40.4977L252 41L258.464 32.5023Z" fill="#74A7FE"/>
<path d="M255.81 28L259 32.4546L251.19 41L248 36.5454L255.81 28Z" fill="#74A7FE"/>
<path d="M252.414 28C253.848 28 255.044 28.1488 256 28.4465L248.586 36C247.63 35.7023 246.434 35.5535 245 35.5535L252.414 28Z" fill="#74A7FE"/>
<path d="M254 24C250.988 24 248.618 24.7129 246.89 26.1386L240 33C241.728 31.5742 244.098 30.8614 247.11 30.8614L254 24Z" fill="#74A7FE"/>
<path d="M263 39.4688C262.561 38.6054 261.78 37.7825 260.655 37L253 44.5312C254.124 45.3136 254.906 46.1366 255.345 47L263 39.4688Z" fill="#74A7FE"/>
<path d="M250.849 28.2499C251.327 28.0833 252.044 28 253 28L245.151 35.7501C244.195 35.7501 243.478 35.8334 243 36L250.849 28.2499Z" fill="#74A7FE"/>
<path d="M260 37.3826C258.932 36.6951 257.356 35.9009 255.272 35L248 41.6174C250.084 42.5183 251.66 43.3125 252.728 44L260 37.3826Z" fill="#74A7FE"/>
<path d="M263 41.8999C263 40.7552 262.777 39.7886 262.33 39L255 46.1001C255.446 46.8887 255.67 47.8553 255.67 49L263 41.8999Z" fill="#74A7FE"/>
<path d="M250.791 29.2852C250.791 28.9812 250.86 28.5528 251 28L243.209 35.7148C243.07 36.2676 243 36.696 243 37L250.791 29.2852Z" fill="#74A7FE"/>
<path d="M256 34.6894C254.501 34.0084 253.37 33.4453 252.607 33L245 40.3106C245.763 40.7559 246.894 41.319 248.393 42L256 34.6894Z" fill="#74A7FE"/>
<path d="M246 26C245.805 26.1629 245.62 26.3324 245.445 26.5085L238.003 33.9972C238.177 33.8221 238.361 33.6535 238.555 33.4915L246 26Z" fill="#74A7FE"/>
<path d="M251 31.5594C250.702 31.1063 250.553 30.5865 250.553 30L243 37.4406C243 38.027 243.149 38.5468 243.447 39L251 31.5594Z" fill="#74A7FE"/>
<path d="M253 33.3904C252.254 32.8997 251.734 32.4362 251.441 32L244 39.6096C244.293 40.0458 244.813 40.5093 245.559 41L253 33.3904Z" fill="#74A7FE"/>
<path d="M261.009 47.4389C262.336 46.0065 263 44.1935 263 42L255.991 49.5611C255.991 51.7547 255.327 53.5676 254 55L261.009 47.4389Z" fill="#74A7FE"/>
<path d="M246 27C244.455 28.343 243.683 30.1175 243.683 32.3235L236 39C236 36.794 236.772 35.0195 238.317 33.6765L246 27Z" fill="#74A7FE"/>
<path d="M259.138 47.8509C259.453 47.5859 259.74 47.303 259.998 47.0025L253.862 54.1491C253.604 54.4505 253.316 54.7342 253 55L259.138 47.8509Z" fill="#74A7FE"/>
<path d="M253.575 42C254.308 42.3737 254.783 42.7225 255 43.0463L247.425 50C247.208 49.6761 246.733 49.3274 246 48.9537L253.575 42Z" fill="#74A7FE"/>
<path d="M254.67 43C254.89 43.2882 255 43.7205 255 44.2968L247.33 51C247.33 50.4236 247.22 49.9914 247 49.7032L254.67 43Z" fill="#74A7FE"/>
<path d="M250.231 41C252.044 41.7093 253.301 42.2471 254 42.6132L246.769 49C246.07 48.6339 244.813 48.0962 243 47.3868L250.231 41Z" fill="#74A7FE"/>
<path d="M255 44C255 44.1533 254.975 44.449 254.926 44.887L248 51C248.05 50.562 248.074 50.2663 248.074 50.113L255 44Z" fill="#74A7FE"/>
<path d="M243.474 32C243.474 33.7537 243.983 35.2815 245 36.5835L237.526 44C236.509 42.698 236 41.1702 236 39.4165L243.474 32Z" fill="#74A7FE"/>
<path d="M244.601 37C245.5 38.1591 246.966 39.2457 249 40.2599L242.399 47C240.365 45.9858 238.899 44.8992 238 43.7401L244.601 37Z" fill="#74A7FE"/>
<path d="M255 45C253.636 45.2461 252.743 45.3691 252.324 45.3691L245 53C245.42 53 246.312 52.877 247.676 52.6309L255 45Z" fill="#74A7FE"/>
<path d="M251.368 50.3449C255.037 50.3449 257.915 49.5633 260 48L252.632 55.6551C250.547 57.2184 247.669 58 244 58L251.368 50.3449Z" fill="#74A7FE"/>
<path d="M253 45.8113C251.845 45.8113 250.514 45.5409 249.008 45L242 52.1887C243.506 52.7296 244.837 53 245.992 53L253 45.8113Z" fill="#74A7FE"/>
<path d="M248 44.822L246.306 42L240 48.178L241.694 51L248 44.822Z" fill="#74A7FE"/>
<path d="M241 36.9392C241 28.3131 236.719 24 228.156 24L221 31.0608C229.563 31.0608 233.844 35.3739 233.844 44L241 36.9392Z" fill="#74A7FE"/>
<path d="M246 42L243.073 42.5222L236 49L238.927 48.4778L246 42Z" fill="#74A7FE"/>
<path d="M227 24C224.521 24 222.384 24.5737 220.59 25.7211L214 33C215.794 31.8526 217.931 31.2789 220.41 31.2789L227 24Z" fill="#74A7FE"/>
<path d="M239.375 44.1278C240.458 42.1335 241 39.7575 241 37L233.625 43.8722C233.625 46.6298 233.083 49.0057 232 51L239.375 44.1278Z" fill="#74A7FE"/>
<path d="M227.272 28C229.356 28 230.932 28.7816 232 30.3449L224.728 38C223.66 36.4367 222.084 35.6551 220 35.6551L227.272 28Z" fill="#74A7FE"/>
<path d="M231.343 31C232.448 32.5025 233 34.7167 233 37.6426L225.657 45C225.657 42.0741 225.105 39.8599 224 38.3574L231.343 31Z" fill="#74A7FE"/>
<path d="M244 42C243.71 44.1437 243.499 46.4639 243.367 48.9606L236 56C236.132 53.5032 236.343 51.183 236.633 49.0394L244 42Z" fill="#74A7FE"/>
<path d="M243.278 49C246.224 49.9269 249.132 50.3904 252 50.3904L244.722 58C241.854 58 238.946 57.5365 236 56.6096L243.278 49Z" fill="#74A7FE"/>
<path d="M222.542 28.9127C223.974 28.3042 225.46 28 227 28L219.458 36.0873C217.918 36.0873 216.432 36.3915 215 37L222.542 28.9127Z" fill="#74A7FE"/>
<path d="M233 38C233 39.0788 232.927 40.1816 232.781 41.3084L226 48C226.146 46.8732 226.219 45.7704 226.219 44.6916L233 38Z" fill="#74A7FE"/>
<path d="M221 26C220.096 26.4438 219.284 26.9718 218.563 27.5838L211.004 33.9962C211.724 33.3858 212.535 32.8591 213.437 32.4162L221 26Z" fill="#74A7FE"/>
<path d="M237.744 46.8874C238.642 46.0624 239.394 45.1 240 44L232.256 51.1126C231.65 52.2126 230.898 53.175 230 54L237.744 46.8874Z" fill="#74A7FE"/>
<path d="M222.33 32.2764C222.488 31.2165 222.711 30.4577 223 30L215.67 36.7236C215.381 37.1813 215.158 37.9401 215 39L222.33 32.2764Z" fill="#74A7FE"/>
<path d="M233 41C232.842 42.1657 232.619 43.1413 232.33 43.9269L225 51C225.289 50.2144 225.512 49.2388 225.67 48.0731L233 41Z" fill="#74A7FE"/>
<path d="M219 27C218.067 27.8529 217.285 28.8557 216.654 30.0084L209 37C209.631 35.8473 210.413 34.8445 211.346 33.9916L219 27Z" fill="#74A7FE"/>
<path d="M221.781 35.82C221.781 34.3794 221.854 33.1061 222 32L215.219 39.18C215.073 40.2861 215 41.5595 215 43L221.781 35.82Z" fill="#74A7FE"/>
<path d="M234.417 48.8596C235.384 48.3467 236.243 47.7282 236.996 47.004L229.583 54.1404C228.829 54.8663 227.968 55.4862 227 56L234.417 48.8596Z" fill="#74A7FE"/>
<path d="M233 44C231.59 44.6292 230.113 44.9438 228.567 44.9438L221 51C222.545 51 224.023 50.6854 225.433 50.0562L233 44Z" fill="#74A7FE"/>
<path d="M224 42.8446C222.895 41.2552 222.343 38.9737 222.343 36L215 43.1554C215 46.1291 215.552 48.4106 216.657 50L224 42.8446Z" fill="#74A7FE"/>
<path d="M211 27.3826C210.22 26.2921 208.972 25.4979 207.256 25L200 31.6174C201.716 32.1152 202.964 32.9094 203.744 34L211 27.3826Z" fill="#74A7FE"/>
<path d="M212 31.7046C212 29.7444 211.572 28.1762 210.715 27L203 34.2954C203.857 35.4715 204.285 37.0397 204.285 39L212 31.7046Z" fill="#74A7FE"/>
<path d="M229 44.9993C226.75 44.9993 225.034 44.3329 223.852 43L216 49.0007C217.182 50.3336 218.898 51 221.148 51L229 44.9993Z" fill="#74A7FE"/>
<path d="M216 30C215.037 32.1424 214.556 34.6815 214.556 37.6174L208 45C208 42.0641 208.481 39.525 209.444 37.3826L216 30Z" fill="#74A7FE"/>
<path d="M228.039 50.6894C230.738 50.6894 233.058 50.1262 235 49L227.961 56.3106C226.019 57.4369 223.699 58 221 58L228.039 50.6894Z" fill="#74A7FE"/>
<path d="M208 24.8458C206.167 24.2819 203.751 24 200.752 24L193 31.1542C195.999 31.1542 198.415 31.4361 200.248 32L208 24.8458Z" fill="#74A7FE"/>
<path d="M210.679 36.0633C211.56 34.8953 212 33.5408 212 32L204.321 38.9367C204.321 40.4775 203.88 41.832 203 43L210.679 36.0633Z" fill="#74A7FE"/>
<path d="M205.048 28C205.683 28.599 206 29.6117 206 31.038L197.952 39C197.952 37.5737 197.634 36.5611 197 35.962L205.048 28Z" fill="#74A7FE"/>
<path d="M201.514 28C202.681 28 203.51 28.2704 204 28.8113L197.486 36C196.995 35.4591 196.167 35.1887 195 35.1887L201.514 28Z" fill="#74A7FE"/>
<path d="M210.191 36.9479C210.49 36.6544 210.76 36.3385 211 36L203.809 43.0521C203.569 43.3906 203.299 43.7065 203 44L210.191 36.9479Z" fill="#74A7FE"/>
<path d="M214.967 38C214.967 42.1353 215.978 45.2186 218 47.25L211.033 54C209.011 51.9686 208 48.8853 208 44.75L214.967 38Z" fill="#74A7FE"/>
<path d="M217.859 47C219.874 49.2808 222.921 50.4212 227 50.4212L220.141 58C216.062 58 213.015 56.8596 211 54.5788L217.859 47Z" fill="#74A7FE"/>
<path d="M198.89 28.1269C199.605 28.0423 200.309 28 201 28L194.11 35.8731C193.419 35.8731 192.716 35.9154 192 36L198.89 28.1269Z" fill="#74A7FE"/>
<path d="M206 32C206 33.2251 205.864 34.2787 205.592 35.1608L198 42C198.272 41.1179 198.408 40.0643 198.408 38.8392L206 32Z" fill="#74A7FE"/>
<path d="M207.264 38.7835C208.351 38.326 209.262 37.7324 209.997 37.0028L202.736 44.2165C202 44.9474 201.088 45.5419 200 46L207.264 38.7835Z" fill="#74A7FE"/>
<path d="M201 24C197.294 24 193.441 24.2819 189.442 24.8458L182 32C185.999 31.4361 189.852 31.1542 193.558 31.1542L201 24Z" fill="#74A7FE"/>
<path d="M204 35C203.432 35.272 202.546 35.408 201.342 35.408L195 43C196.204 43 197.09 42.864 197.658 42.592L204 35Z" fill="#74A7FE"/>
<path d="M199 34.8642V28L192 35.1358V42L199 34.8642Z" fill="#74A7FE"/>
<path d="M213 48.8766L206.99 39L200 46.1234L206.01 56L213 48.8766Z" fill="#74A7FE"/>
<path d="M201 35.2499C200.129 35.2499 199.38 35.1666 198.751 35L192 42.7501C192.629 42.9167 193.379 43 194.249 43L201 35.2499Z" fill="#74A7FE"/>
<path d="M212.968 50.3862L213 49L207.032 55.6138L207 57L212.968 50.3862Z" fill="#74A7FE"/>
<path d="M191.29 28C191.673 28.2078 191.91 28.4454 192 28.7126L185.71 37C185.62 36.7328 185.383 36.4953 185 36.2874L191.29 28Z" fill="#74A7FE"/>
<path d="M191.853 30C191.951 30.1939 192 30.6058 192 31.2359L185.147 38C185.147 37.3699 185.098 36.958 185 36.7641L191.853 30Z" fill="#74A7FE"/>
<path d="M189.034 28L191 29.0787L183.966 36L182 34.9213L189.034 28Z" fill="#74A7FE"/>
<path d="M199.279 41L201 41.0321L193.721 47L192 46.9679L199.279 41Z" fill="#74A7FE"/>
<path d="M206.078 50H213L205.922 57H199L206.078 50Z" fill="#74A7FE"/>
<path d="M200.798 41L207 50.4288L199.202 57L193 47.5712L200.798 41Z" fill="#74A7FE"/>
<path d="M199 44.7574V41L192 47.2426V51L199 44.7574Z" fill="#74A7FE"/>
<path d="M199 44.9996C198.926 44.8491 198.889 44.5159 198.889 44L192 50.0004C192 50.5163 192.037 50.8495 192.111 51L199 44.9996Z" fill="#74A7FE"/>
<path d="M201 46.9475L199.311 46L192 53.0525L193.689 54L201 46.9475Z" fill="#74A7FE"/>
<path d="M192 31V44.4372L185 51V37.5628L192 31Z" fill="#74A7FE"/>
<path d="M200 45.5598C199.634 45.3465 199.399 45.1599 199.294 45L192 52.4402C192.105 52.6002 192.34 52.7868 192.706 53L200 45.5598Z" fill="#74A7FE"/>
<path d="M200.874 50.1608L201 47L195.126 53.8392L195 57L200.874 50.1608Z" fill="#74A7FE"/>
<path d="M189.141 50H201L193.859 57H182L189.141 50Z" fill="#74A7FE"/>
<path d="M192 45L189.182 45.7764L182 53L184.818 52.2236L192 45Z" fill="#74A7FE"/>
<path d="M190.444 46.124L193.218 45.364V30.886C193.218 30.2273 193.167 29.7967 193.066 29.594C192.965 29.366 192.699 29.1633 192.268 28.986L190.292 27.884L190.52 24.768C194.32 24.2107 197.981 23.932 201.502 23.932C204.238 23.932 206.442 24.2107 208.114 24.768C209.786 25.3 211.002 26.1487 211.762 27.314C212.547 28.454 212.94 29.974 212.94 31.874C212.94 33.4447 212.535 34.8253 211.724 36.016C210.913 37.1813 209.761 38.0807 208.266 38.714L214.346 48.518L214.308 50H207.392L201.768 39.854L200.096 39.816V44.072C200.096 44.68 200.134 45.0727 200.21 45.25C200.311 45.402 200.539 45.5793 200.894 45.782L202.528 46.732L202.376 50H190.634L190.444 46.124ZM202.528 35.56C203.871 35.56 204.859 35.4333 205.492 35.18C205.745 34.268 205.872 33.1787 205.872 31.912C205.872 30.6453 205.593 29.746 205.036 29.214C204.504 28.682 203.605 28.416 202.338 28.416C201.629 28.416 200.907 28.454 200.172 28.53V35.332C200.831 35.484 201.616 35.56 202.528 35.56ZM228.096 50.532C223.89 50.532 220.749 49.468 218.672 47.34C216.62 45.212 215.594 41.982 215.594 37.65C215.594 34.838 216.113 32.406 217.152 30.354C218.19 28.2767 219.672 26.6807 221.598 25.566C223.523 24.4513 225.816 23.894 228.476 23.894C236.937 23.894 241.168 28.2133 241.168 36.852C241.168 39.6893 240.648 42.134 239.61 44.186C238.571 46.238 237.064 47.8087 235.088 48.898C233.137 49.9873 230.806 50.532 228.096 50.532ZM228.894 45.288C230.338 45.288 231.718 44.9207 233.036 44.186C233.314 43.4007 233.53 42.4253 233.682 41.26C233.834 40.0693 233.91 38.904 233.91 37.764C233.91 34.952 233.378 32.824 232.314 31.38C231.275 29.936 229.742 29.214 227.716 29.214C226.272 29.214 224.878 29.48 223.536 30.012C223.257 30.4933 223.042 31.2913 222.89 32.406C222.738 33.4953 222.662 34.7493 222.662 36.168C222.662 39.1067 223.194 41.3613 224.258 42.932C225.322 44.5027 226.867 45.288 228.894 45.288ZM251.791 50.456C249.004 50.456 246.18 50.0253 243.317 49.164C243.444 46.656 243.646 44.3253 243.925 42.172L246.851 41.602L248.751 44.832C250.271 45.364 251.614 45.63 252.779 45.63C253.184 45.63 254.046 45.516 255.363 45.288C255.414 44.7813 255.439 44.4393 255.439 44.262C255.439 43.654 255.338 43.198 255.135 42.894C254.932 42.5647 254.489 42.21 253.805 41.83C253.121 41.4247 251.892 40.8293 250.119 40.044C247.94 38.98 246.37 37.84 245.407 36.624C244.444 35.3827 243.963 33.926 243.963 32.254C243.963 29.6447 244.85 27.6053 246.623 26.136C248.396 24.6667 250.828 23.932 253.919 23.932C255.414 23.932 256.896 24.084 258.365 24.388C259.86 24.6667 261.164 25.0593 262.279 25.566C262.228 26.9847 262.114 28.7453 261.937 30.848L261.823 32.482L259.049 32.9L256.161 29.214C255.249 28.9353 254.109 28.796 252.741 28.796C251.88 28.796 251.234 28.872 250.803 29.024C250.676 29.5307 250.613 29.9233 250.613 30.202C250.613 30.7593 250.752 31.2533 251.031 31.684C251.31 32.0893 251.804 32.52 252.513 32.976C253.222 33.4067 254.274 33.9513 255.667 34.61C257.694 35.5727 259.226 36.4213 260.265 37.156C261.304 37.8907 262.026 38.6633 262.431 39.474C262.862 40.2593 263.077 41.222 263.077 42.362C263.077 44.87 262.076 46.846 260.075 48.29C258.074 49.734 255.312 50.456 251.791 50.456Z" fill="url(#paint1_linear_17_2)"/>
<defs>
<linearGradient id="paint0_linear_17_2" x1="92" y1="0" x2="92" y2="64" gradientUnits="userSpaceOnUse">
<stop stop-color="#F98213"/>
<stop offset="1" stop-color="#F42500"/>
</linearGradient>
<linearGradient id="paint1_linear_17_2" x1="226.5" y1="12" x2="226.5" y2="69" gradientUnits="userSpaceOnUse">
<stop stop-color="#137EF9"/>
<stop offset="1" stop-color="#F42500"/>
</linearGradient>
</defs>
</svg>
