<svg width="309" height="99" viewBox="0 0 309 99" fill="none" xmlns="http://www.w3.org/2000/svg">
<path d="M10.32 33.8551L9.264 48.0631V48.2551C9.264 48.8631 9.488 49.2631 9.936 49.4551L12.912 50.7031L12.432 55.0711H0.48L0 50.7991L2.208 49.4551L4.944 30.9271C4.976 30.7031 4.992 30.4311 4.992 30.1111C4.992 29.7271 4.896 29.4391 4.704 29.2471C4.544 29.0551 4.224 28.8151 3.744 28.5271L1.536 27.2791L1.824 22.7191H15.6L22.464 45.0871L29.28 22.7191H42.144L42.336 27.7591L39.264 28.5271L41.856 47.3431C41.952 47.9831 42.08 48.4791 42.24 48.8311C42.432 49.1831 42.848 49.7591 43.488 50.5591L44.496 51.8551L44.208 55.0711H29.904L29.472 50.6551L33.408 49.6471L31.776 33.5671L25.632 55.2631L17.424 55.9831L10.32 33.8551Z" fill="#FF9300"/>
<path d="M46.3159 50.7991L47.8039 49.8871L59.0359 22.6711L67.1959 21.9511L76.7959 47.8711C77.1159 48.7031 77.3399 49.2471 77.4679 49.5031C77.5959 49.7591 77.8359 50.1111 78.1879 50.5591L79.0519 51.6631L78.7639 55.0711H65.2759L64.7959 50.5111L68.2039 49.6471L66.6679 44.7991L56.9239 44.9431L55.8679 47.9671C55.7719 48.2551 55.7239 48.4951 55.7239 48.6871C55.7239 48.9111 55.7559 49.0871 55.8199 49.2151C55.9159 49.3111 56.0599 49.3911 56.2519 49.4551L59.5639 50.8471L59.0839 55.0711H46.5079L46.3159 50.7991ZM62.0119 30.1591L58.8439 39.3751L65.0359 39.6631L62.0119 30.1591Z" fill="#FF9300"/>
<path d="M81.027 50.1751L84.531 49.2151V30.9271C84.531 30.0951 84.467 29.5511 84.339 29.2951C84.211 29.0071 83.875 28.7511 83.331 28.5271L80.835 27.1351L81.123 23.2471C83.555 22.8631 85.859 22.5911 88.035 22.4311C90.211 22.2391 92.547 22.1431 95.043 22.1431C98.499 22.1431 101.267 22.5111 103.347 23.2471C105.459 23.9831 106.995 25.1351 107.955 26.7031C108.947 28.2711 109.443 30.3511 109.443 32.9431C109.443 35.8578 108.528 38.2308 106.698 40.0619C106.418 40.3416 106.117 40.6087 105.795 40.8631C103.395 42.7831 100.099 43.7431 95.907 43.7431L93.267 43.6471V47.2951C93.267 48.0631 93.315 48.5591 93.411 48.7831C93.539 49.0071 93.827 49.2311 94.275 49.4551L97.203 51.1831L97.011 55.0711H81.267L81.027 50.1751ZM96.339 38.4151C98.067 38.4151 99.331 38.2391 100.131 37.8871C100.483 36.3191 100.659 34.6711 100.659 32.9431C100.659 31.0551 100.291 29.7111 99.555 28.9111C98.851 28.1111 97.699 27.7111 96.099 27.7111C95.555 27.7111 94.611 27.7751 93.267 27.9031V38.1271C94.131 38.3191 95.155 38.4151 96.339 38.4151Z" fill="#FF9300"/>
<path d="M111.625 50.0311L114.649 49.2151V30.8311C114.649 29.9991 114.585 29.4551 114.457 29.1991C114.361 28.9111 114.057 28.6551 113.545 28.4311L111.529 27.2791L111.673 22.7191H126.649L126.889 27.6151L123.337 28.5751V49.3111L129.385 49.1671C129.385 49.1671 130.211 48.2252 131.119 47.1887C131.322 46.9572 131.529 46.721 131.731 46.4895C132.64 45.453 133.465 44.5111 133.465 44.5111L137.161 44.7031C137.097 47.3911 136.873 50.8471 136.489 55.0711H111.865L111.625 50.0311Z" fill="#FF9300"/>
<path d="M139.656 50.1751L143.16 49.2151V30.8311C143.16 29.9991 143.096 29.4551 142.968 29.1991C142.84 28.9111 142.504 28.6551 141.96 28.4311L139.56 27.0391L139.704 22.7191H165.768C165.992 26.0791 166.104 29.3591 166.104 32.5591L162.552 32.7991L159.144 28.5751L151.896 28.3831V36.2071L162.12 35.3431V42.7351L151.896 41.6311V49.3591L159.864 49.2151C159.864 49.2151 160.592 48.3836 161.401 47.4584C161.607 47.2235 161.818 46.9826 162.023 46.7478C162.833 45.8226 163.56 44.9911 163.56 44.9911L167.112 45.2311C166.984 48.5911 166.744 51.8711 166.392 55.0711H139.896L139.656 50.1751Z" fill="#FF9300"/>
<path d="M173.175 25.488C173.175 22.288 173.063 19.008 172.839 15.648L165.768 22.7191C165.992 26.0791 166.104 29.3591 166.104 32.5591L173.175 25.488Z" fill="#FF9300"/>
<path d="M169.623 25.728L173.175 25.488L166.104 32.5591L162.552 32.7991L169.623 25.728Z" fill="#FF9300"/>
<path d="M166.215 21.504L169.623 25.728L162.552 32.7991L159.144 28.5751L166.215 21.504Z" fill="#FF9300"/>
<path d="M172.839 15.648H146.775L139.704 22.7191H165.768L172.839 15.648Z" fill="#FF9300"/>
<path d="M158.967 21.312L166.215 21.504L159.144 28.5751L151.896 28.3831L158.967 21.312Z" fill="#FF9300"/>
<path d="M169.191 35.664V28.272L162.12 35.3431V42.7351L169.191 35.664Z" fill="#FF9300"/>
<path d="M169.191 28.272L158.967 29.136L151.896 36.2071L162.12 35.3431L169.191 28.272Z" fill="#FF9300"/>
<path d="M174.183 38.16L170.631 37.92L163.56 44.9911L167.112 45.2311L174.183 38.16Z" fill="#FF9300"/>
<path d="M158.967 29.136V21.312L151.896 28.3831V36.2071L158.967 29.136Z" fill="#FF9300"/>
<path d="M170.631 37.92L169.094 39.6767L162.023 46.7478L163.56 44.9911L170.631 37.92Z" fill="#FF9300"/>
<path d="M173.463 48C173.815 44.8 174.055 41.52 174.183 38.16L167.112 45.2311C166.984 48.5911 166.744 51.8711 166.392 55.0711L173.463 48Z" fill="#FF9300"/>
<path d="M158.967 34.56L169.191 35.664L162.12 42.7351L151.896 41.6311L158.967 34.56Z" fill="#FF9300"/>
<path d="M146.775 15.648L146.631 19.968L139.56 27.0391L139.704 22.7191L146.775 15.648Z" fill="#FF9300"/>
<path d="M169.094 39.6767L168.473 40.3873L161.401 47.4584L162.023 46.7477L169.094 39.6767Z" fill="#FF9300"/>
<path d="M149.031 21.36C149.575 21.584 149.911 21.84 150.039 22.128L142.968 29.1991C142.84 28.9111 142.504 28.6551 141.96 28.4311L149.031 21.36Z" fill="#FF9300"/>
<path d="M150.039 22.128C150.167 22.384 150.231 22.928 150.231 23.76L143.16 30.8311C143.16 29.9991 143.096 29.4551 142.968 29.1991L150.039 22.128Z" fill="#FF9300"/>
<path d="M146.631 19.968L149.031 21.36L141.96 28.4311L139.56 27.0391L146.631 19.968Z" fill="#FF9300"/>
<path d="M168.473 40.3873L166.935 42.144L159.864 49.2151L161.401 47.4584L168.473 40.3873Z" fill="#FF9300"/>
<path d="M166.935 42.144L158.967 42.288L151.896 49.3591L159.864 49.2151L166.935 42.144Z" fill="#FF9300"/>
<path d="M158.967 42.288V34.56L151.896 41.6311V49.3591L158.967 42.288Z" fill="#FF9300"/>
<path d="M150.231 23.76V42.144L143.16 49.2151V30.8311L150.231 23.76Z" fill="#FF9300"/>
<path d="M133.96 20.544L133.72 15.648L126.649 22.7191L126.889 27.6151L133.96 20.544Z" fill="#FF9300"/>
<path d="M146.967 48H173.463L166.392 55.0711H139.896L146.967 48Z" fill="#FF9300"/>
<path d="M130.408 21.504L133.96 20.544L126.889 27.6151L123.337 28.5751L130.408 21.504Z" fill="#FF9300"/>
<path d="M133.72 15.648H118.744L111.673 22.7191H126.649L133.72 15.648Z" fill="#FF9300"/>
<path d="M150.231 42.144L146.727 43.104L139.656 50.1751L143.16 49.2151L150.231 42.144Z" fill="#FF9300"/>
<path d="M144.232 37.632L140.536 37.44L133.465 44.5111L137.161 44.7031L144.232 37.632Z" fill="#FF9300"/>
<path d="M146.727 43.104L146.967 48L139.896 55.0711L139.656 50.1751L146.727 43.104Z" fill="#FF9300"/>
<path d="M140.536 37.44L138.803 39.4184L131.731 46.4895L133.465 44.5111L140.536 37.44Z" fill="#FF9300"/>
<path d="M143.56 48C143.944 43.776 144.168 40.32 144.232 37.632L137.161 44.7031C137.097 47.3911 136.873 50.8471 136.489 55.0711L143.56 48Z" fill="#FF9300"/>
<path d="M118.744 15.648L118.6 20.208L111.529 27.2791L111.673 22.7191L118.744 15.648Z" fill="#FF9300"/>
<path d="M120.616 21.36C121.128 21.584 121.432 21.84 121.528 22.128L114.457 29.1991C114.361 28.9111 114.057 28.6551 113.545 28.4311L120.616 21.36Z" fill="#FF9300"/>
<path d="M118.6 20.208L120.616 21.36L113.545 28.4311L111.529 27.2791L118.6 20.208Z" fill="#FF9300"/>
<path d="M138.803 39.4184L138.19 40.1176L131.119 47.1887L131.731 46.4895L138.803 39.4184Z" fill="#FF9300"/>
<path d="M121.528 22.128C121.656 22.384 121.72 22.928 121.72 23.76L114.649 30.8311C114.649 29.9991 114.585 29.4551 114.457 29.1991L121.528 22.128Z" fill="#FF9300"/>
<path d="M130.408 42.24V21.504L123.337 28.5751V49.3111L130.408 42.24Z" fill="#FF9300"/>
<path d="M138.19 40.1176L136.456 42.096L129.385 49.1671L131.119 47.1887L138.19 40.1176Z" fill="#FF9300"/>
<path d="M115.026 19.632C114.066 18.064 112.53 16.912 110.418 16.176L103.347 23.2471C105.459 23.9831 106.995 25.1351 107.955 26.7031L115.026 19.632Z" fill="#FF9300"/>
<path d="M116.514 25.872C116.514 23.28 116.018 21.2 115.026 19.632L107.955 26.7031C108.947 28.2711 109.443 30.3511 109.443 32.9431L116.514 25.872Z" fill="#FF9300"/>
<path d="M136.456 42.096L130.408 42.24L123.337 49.3111L129.385 49.1671L136.456 42.096Z" fill="#FF9300"/>
<path d="M110.418 16.176C108.338 15.44 105.57 15.072 102.114 15.072L95.043 22.1431C98.499 22.1431 101.267 22.5111 103.347 23.2471L110.418 16.176Z" fill="#FF9300"/>
<path d="M121.72 23.76V42.144L114.649 49.2151V30.8311L121.72 23.76Z" fill="#FF9300"/>
<path d="M113.769 32.9908C115.599 31.1597 116.514 28.7868 116.514 25.872L109.443 32.9431C109.443 35.8578 108.528 38.2308 106.698 40.0619L113.769 32.9908Z" fill="#FF9300"/>
<path d="M103.17 20.64C104.77 20.64 105.922 21.04 106.626 21.84L99.555 28.9111C98.851 28.1111 97.699 27.7111 96.099 27.7111L103.17 20.64Z" fill="#FF9300"/>
<path d="M102.114 15.072C99.6181 15.072 97.2821 15.168 95.1061 15.36L88.035 22.4311C90.211 22.2391 92.547 22.1431 95.043 22.1431L102.114 15.072Z" fill="#FF9300"/>
<path d="M106.626 21.84C107.362 22.64 107.73 23.984 107.73 25.872L100.659 32.9431C100.659 31.0551 100.291 29.7111 99.555 28.9111L106.626 21.84Z" fill="#FF9300"/>
<path d="M118.936 48H143.56L136.489 55.0711H111.865L118.936 48Z" fill="#FF9300"/>
<path d="M100.338 20.832C101.682 20.704 102.626 20.64 103.17 20.64L96.099 27.7111C95.555 27.7111 94.611 27.7751 93.267 27.9031L100.338 20.832Z" fill="#FF9300"/>
<path d="M112.866 33.792C113.187 33.5387 113.487 33.2728 113.765 32.9944L106.698 40.0619C106.418 40.3416 106.117 40.6086 105.795 40.8631L112.866 33.792Z" fill="#FF9300"/>
<path d="M107.73 25.872C107.73 27.6 107.554 29.248 107.202 30.816L100.131 37.8871C100.483 36.3191 100.659 34.6711 100.659 32.9431L107.73 25.872Z" fill="#FF9300"/>
<path d="M121.72 42.144L118.696 42.96L111.625 50.0311L114.649 49.2151L121.72 42.144Z" fill="#FF9300"/>
<path d="M95.1061 15.36C92.9301 15.52 90.6261 15.792 88.1941 16.176L81.123 23.2471C83.555 22.8631 85.859 22.5911 88.035 22.4311L95.1061 15.36Z" fill="#FF9300"/>
<path d="M100.338 31.056V20.832L93.267 27.9031V38.1271L100.338 31.056Z" fill="#FF9300"/>
<path d="M107.202 30.816C106.402 31.168 105.138 31.344 103.41 31.344L96.339 38.4151C98.067 38.4151 99.331 38.2391 100.131 37.8871L107.202 30.816Z" fill="#FF9300"/>
<path d="M118.696 42.96L118.936 48L111.865 55.0711L111.625 50.0311L118.696 42.96Z" fill="#FF9300"/>
<path d="M102.978 36.672C107.17 36.672 110.466 35.712 112.866 33.792L105.795 40.8631C103.395 42.7831 100.099 43.7431 95.907 43.7431L102.978 36.672Z" fill="#FF9300"/>
<path d="M103.41 31.344C102.226 31.344 101.202 31.248 100.338 31.056L93.267 38.1271C94.131 38.3191 95.155 38.4151 96.339 38.4151L103.41 31.344Z" fill="#FF9300"/>
<path d="M88.1941 16.176L87.9061 20.064L80.835 27.1351L81.123 23.2471L88.1941 16.176Z" fill="#FF9300"/>
<path d="M90.4021 21.456C90.9461 21.68 91.2821 21.936 91.4101 22.224L84.339 29.2951C84.211 29.0071 83.875 28.7511 83.331 28.5271L90.4021 21.456Z" fill="#FF9300"/>
<path d="M91.4101 22.224C91.5381 22.48 91.6021 23.024 91.6021 23.856L84.531 30.9271C84.531 30.0951 84.467 29.5511 84.339 29.2951L91.4101 22.224Z" fill="#FF9300"/>
<path d="M87.9061 20.064L90.4021 21.456L83.331 28.5271L80.835 27.1351L87.9061 20.064Z" fill="#FF9300"/>
<path d="M100.338 36.576L102.978 36.672L95.907 43.7431L93.267 43.6471L100.338 36.576Z" fill="#FF9300"/>
<path d="M100.338 40.224V36.576L93.267 43.6471V47.2951L100.338 40.224Z" fill="#FF9300"/>
<path d="M104.274 44.112L101.346 42.384L94.275 49.4551L97.203 51.1831L104.274 44.112Z" fill="#FF9300"/>
<path d="M100.482 41.712C100.386 41.488 100.338 40.992 100.338 40.224L93.267 47.2951C93.267 48.0631 93.315 48.5591 93.411 48.7831L100.482 41.712Z" fill="#FF9300"/>
<path d="M101.346 42.384C100.898 42.16 100.61 41.936 100.482 41.712L93.411 48.7831C93.539 49.0071 93.827 49.2311 94.275 49.4551L101.346 42.384Z" fill="#FF9300"/>
<path d="M91.6021 23.856V42.144L84.531 49.2151V30.9271L91.6021 23.856Z" fill="#FF9300"/>
<path d="M104.082 48L104.274 44.112L97.203 51.1831L97.011 55.0711L104.082 48Z" fill="#FF9300"/>
<path d="M74.2669 14.88L66.1069 15.6L59.0359 22.6711L67.1959 21.9511L74.2669 14.88Z" fill="#FF9300"/>
<path d="M83.8669 40.8L74.2669 14.88L67.1959 21.9511L76.7959 47.8711L83.8669 40.8Z" fill="#FF9300"/>
<path d="M88.3381 48H104.082L97.011 55.0711H81.267L88.3381 48Z" fill="#FF9300"/>
<path d="M91.6021 42.144L88.0981 43.104L81.027 50.1751L84.531 49.2151L91.6021 42.144Z" fill="#FF9300"/>
<path d="M69.0829 23.088L72.1069 32.592L65.0359 39.6631L62.0119 30.1591L69.0829 23.088Z" fill="#FF9300"/>
<path d="M88.0981 43.104L88.3381 48L81.267 55.0711L81.027 50.1751L88.0981 43.104Z" fill="#FF9300"/>
<path d="M84.5389 42.432C84.4109 42.176 84.1869 41.632 83.8669 40.8L76.7959 47.8711C77.1159 48.7031 77.3399 49.2471 77.4679 49.5031L84.5389 42.432Z" fill="#FF9300"/>
<path d="M85.2589 43.488C84.9069 43.04 84.6669 42.688 84.5389 42.432L77.4679 49.5031C77.5959 49.7591 77.8359 50.1111 78.1879 50.5591L85.2589 43.488Z" fill="#FF9300"/>
<path d="M86.1229 44.592L85.2589 43.488L78.1879 50.5591L79.0519 51.6631L86.1229 44.592Z" fill="#FF9300"/>
<path d="M65.9149 32.304L69.0829 23.088L62.0119 30.1591L58.8439 39.3751L65.9149 32.304Z" fill="#FF9300"/>
<path d="M85.8349 48L86.1229 44.592L79.0519 51.6631L78.7639 55.0711L85.8349 48Z" fill="#FF9300"/>
<path d="M72.1069 32.592L65.9149 32.304L58.8439 39.3751L65.0359 39.6631L72.1069 32.592Z" fill="#FF9300"/>
<path d="M73.7389 37.728L75.2749 42.576L68.2039 49.6471L66.6679 44.7991L73.7389 37.728Z" fill="#FF9300"/>
<path d="M66.1069 15.6L54.8749 42.816L47.8039 49.8871L59.0359 22.6711L66.1069 15.6Z" fill="#FF9300"/>
<path d="M49.4071 20.688L49.2151 15.648L42.144 22.7191L42.336 27.7591L49.4071 20.688Z" fill="#FF9300"/>
<path d="M72.3469 48H85.8349L78.7639 55.0711H65.2759L72.3469 48Z" fill="#FF9300"/>
<path d="M63.9949 37.872L73.7389 37.728L66.6679 44.7991L56.9239 44.9431L63.9949 37.872Z" fill="#FF9300"/>
<path d="M75.2749 42.576L71.8669 43.44L64.7959 50.5111L68.2039 49.6471L75.2749 42.576Z" fill="#FF9300"/>
<path d="M49.2151 15.648H36.3511L29.28 22.7191H42.144L49.2151 15.648Z" fill="#FF9300"/>
<path d="M46.3351 21.456L49.4071 20.688L42.336 27.7591L39.264 28.5271L46.3351 21.456Z" fill="#FF9300"/>
<path d="M71.8669 43.44L72.3469 48L65.2759 55.0711L64.7959 50.5111L71.8669 43.44Z" fill="#FF9300"/>
<path d="M62.9389 40.896L63.9949 37.872L56.9239 44.9431L55.8679 47.9671L62.9389 40.896Z" fill="#FF9300"/>
<path d="M66.6349 43.776L63.3229 42.384L56.2519 49.4551L59.5639 50.8471L66.6349 43.776Z" fill="#FF9300"/>
<path d="M62.7949 41.616C62.7949 41.424 62.8429 41.184 62.9389 40.896L55.8679 47.9671C55.7719 48.2551 55.7239 48.4951 55.7239 48.6871L62.7949 41.616Z" fill="#FF9300"/>
<path d="M62.8909 42.144C62.8269 42.016 62.7949 41.84 62.7949 41.616L55.7239 48.6871C55.7239 48.9111 55.7559 49.0871 55.8199 49.2151L62.8909 42.144Z" fill="#FF9300"/>
<path d="M63.3229 42.384C63.1309 42.32 62.9869 42.24 62.8909 42.144L55.8199 49.2151C55.9159 49.3111 56.0599 49.3911 56.2519 49.4551L63.3229 42.384Z" fill="#FF9300"/>
<path d="M66.1549 48L66.6349 43.776L59.5639 50.8471L59.0839 55.0711L66.1549 48Z" fill="#FF9300"/>
<path d="M48.9271 40.272L46.3351 21.456L39.264 28.5271L41.856 47.3431L48.9271 40.272Z" fill="#FF9300"/>
<path d="M53.5789 48H66.1549L59.0839 55.0711H46.5079L53.5789 48Z" fill="#FF9300"/>
<path d="M54.8749 42.816L53.3869 43.728L46.3159 50.7991L47.8039 49.8871L54.8749 42.816Z" fill="#FF9300"/>
<path d="M49.3111 41.76C49.1511 41.408 49.0231 40.912 48.9271 40.272L41.856 47.3431C41.952 47.9831 42.08 48.4791 42.24 48.8311L49.3111 41.76Z" fill="#FF9300"/>
<path d="M53.3869 43.728L53.5789 48L46.5079 55.0711L46.3159 50.7991L53.3869 43.728Z" fill="#FF9300"/>
<path d="M50.5591 43.488C49.9191 42.688 49.5031 42.112 49.3111 41.76L42.24 48.8311C42.432 49.1831 42.848 49.7591 43.488 50.5591L50.5591 43.488Z" fill="#FF9300"/>
<path d="M51.5671 44.784L50.5591 43.488L43.488 50.5591L44.496 51.8551L51.5671 44.784Z" fill="#FF9300"/>
<path d="M36.3511 15.648L29.5351 38.016L22.464 45.0871L29.28 22.7191L36.3511 15.648Z" fill="#FF9300"/>
<path d="M38.8471 26.496L40.4791 42.576L33.408 49.6471L31.776 33.5671L38.8471 26.496Z" fill="#FF9300"/>
<path d="M51.2791 48L51.5671 44.784L44.496 51.8551L44.208 55.0711L51.2791 48Z" fill="#FF9300"/>
<path d="M22.6711 15.648H8.89507L1.824 22.7191H15.6L22.6711 15.648Z" fill="#FF9300"/>
<path d="M29.5351 38.016L22.6711 15.648L15.6 22.7191L22.464 45.0871L29.5351 38.016Z" fill="#FF9300"/>
<path d="M32.7031 48.192L38.8471 26.496L31.776 33.5671L25.632 55.2631L32.7031 48.192Z" fill="#FF9300"/>
<path d="M36.9751 48H51.2791L44.208 55.0711H29.904L36.9751 48Z" fill="#FF9300"/>
<path d="M40.4791 42.576L36.5431 43.584L29.472 50.6551L33.408 49.6471L40.4791 42.576Z" fill="#FF9300"/>
<path d="M36.5431 43.584L36.9751 48L29.904 55.0711L29.472 50.6551L36.5431 43.584Z" fill="#FF9300"/>
<path d="M8.89507 15.648L8.60707 20.208L1.536 27.2791L1.824 22.7191L8.89507 15.648Z" fill="#FF9300"/>
<path d="M10.8151 21.456C11.2951 21.744 11.6151 21.984 11.7751 22.176L4.704 29.2471C4.544 29.0551 4.224 28.8151 3.744 28.5271L10.8151 21.456Z" fill="#FF9300"/>
<path d="M11.7751 22.176C11.9671 22.368 12.0631 22.656 12.0631 23.04L4.992 30.1111C4.992 29.7271 4.896 29.4391 4.704 29.2471L11.7751 22.176Z" fill="#FF9300"/>
<path d="M8.60707 20.208L10.8151 21.456L3.744 28.5271L1.536 27.2791L8.60707 20.208Z" fill="#FF9300"/>
<path d="M12.0631 23.04C12.0631 23.36 12.0471 23.632 12.0151 23.856L4.944 30.9271C4.976 30.7031 4.992 30.4311 4.992 30.1111L12.0631 23.04Z" fill="#FF9300"/>
<path d="M17.3911 26.784L24.4951 48.912L17.424 55.9831L10.32 33.8551L17.3911 26.784Z" fill="#FF9300"/>
<path d="M16.3351 40.992L17.3911 26.784L10.32 33.8551L9.264 48.0631L16.3351 40.992Z" fill="#FF9300"/>
<path d="M24.4951 48.912L32.7031 48.192L25.632 55.2631L17.424 55.9831L24.4951 48.912Z" fill="#FF9300"/>
<path d="M12.0151 23.856L9.27907 42.384L2.208 49.4551L4.944 30.9271L12.0151 23.856Z" fill="#FF9300"/>
<path d="M19.9831 43.632L17.0071 42.384L9.936 49.4551L12.912 50.7031L19.9831 43.632Z" fill="#FF9300"/>
<path d="M16.3351 41.184V40.992L9.264 48.0631V48.2551L16.3351 41.184Z" fill="#FF9300"/>
<path d="M17.0071 42.384C16.5591 42.192 16.3351 41.792 16.3351 41.184L9.264 48.2551C9.264 48.8631 9.488 49.2631 9.936 49.4551L17.0071 42.384Z" fill="#FF9300"/>
<path d="M19.5031 48L19.9831 43.632L12.912 50.7031L12.432 55.0711L19.5031 48Z" fill="#FF9300"/>
<path d="M7.55107 48H19.5031L12.432 55.0711H0.480003L7.55107 48Z" fill="#FF9300"/>
<path d="M9.27907 42.384L7.07107 43.728L0 50.7991L2.208 49.4551L9.27907 42.384Z" fill="#FF9300"/>
<path d="M7.07107 43.728L7.55107 48L0.48 55.0711L0 50.7991L7.07107 43.728Z" fill="#FF9300"/>
<path d="M17.3911 26.784L16.3351 40.992V41.184C16.3351 41.792 16.5591 42.192 17.0071 42.384L19.9831 43.632L19.5031 48H7.55107L7.07107 43.728L9.27907 42.384L12.0151 23.856C12.0471 23.632 12.0631 23.36 12.0631 23.04C12.0631 22.656 11.9671 22.368 11.7751 22.176C11.6151 21.984 11.2951 21.744 10.8151 21.456L8.60707 20.208L8.89507 15.648H22.6711L29.5351 38.016L36.3511 15.648H49.2151L49.4071 20.688L46.3351 21.456L48.9271 40.272C49.0231 40.912 49.1511 41.408 49.3111 41.76C49.5031 42.112 49.9191 42.688 50.5591 43.488L51.5671 44.784L51.2791 48H36.9751L36.5431 43.584L40.4791 42.576L38.8471 26.496L32.7031 48.192L24.4951 48.912L17.3911 26.784ZM53.3869 43.728L54.8749 42.816L66.1069 15.6L74.2669 14.88L83.8669 40.8C84.1869 41.632 84.4109 42.176 84.5389 42.432C84.6669 42.688 84.9069 43.04 85.2589 43.488L86.1229 44.592L85.8349 48H72.3469L71.8669 43.44L75.2749 42.576L73.7389 37.728L63.9949 37.872L62.9389 40.896C62.8429 41.184 62.7949 41.424 62.7949 41.616C62.7949 41.84 62.8269 42.016 62.8909 42.144C62.9869 42.24 63.1309 42.32 63.3229 42.384L66.6349 43.776L66.1549 48H53.5789L53.3869 43.728ZM69.0829 23.088L65.9149 32.304L72.1069 32.592L69.0829 23.088ZM88.0981 43.104L91.6021 42.144V23.856C91.6021 23.024 91.5381 22.48 91.4101 22.224C91.2821 21.936 90.9461 21.68 90.4021 21.456L87.9061 20.064L88.1941 16.176C90.6261 15.792 92.9301 15.52 95.1061 15.36C97.2821 15.168 99.6181 15.072 102.114 15.072C105.57 15.072 108.338 15.44 110.418 16.176C112.53 16.912 114.066 18.064 115.026 19.632C116.018 21.2 116.514 23.28 116.514 25.872C116.514 29.232 115.298 31.872 112.866 33.792C110.466 35.712 107.17 36.672 102.978 36.672L100.338 36.576V40.224C100.338 40.992 100.386 41.488 100.482 41.712C100.61 41.936 100.898 42.16 101.346 42.384L104.274 44.112L104.082 48H88.3381L88.0981 43.104ZM103.41 31.344C105.138 31.344 106.402 31.168 107.202 30.816C107.554 29.248 107.73 27.6 107.73 25.872C107.73 23.984 107.362 22.64 106.626 21.84C105.922 21.04 104.77 20.64 103.17 20.64C102.626 20.64 101.682 20.704 100.338 20.832V31.056C101.202 31.248 102.226 31.344 103.41 31.344ZM118.696 42.96L121.72 42.144V23.76C121.72 22.928 121.656 22.384 121.528 22.128C121.432 21.84 121.128 21.584 120.616 21.36L118.6 20.208L118.744 15.648H133.72L133.96 20.544L130.408 21.504V42.24L136.456 42.096L140.536 37.44L144.232 37.632C144.168 40.32 143.944 43.776 143.56 48H118.936L118.696 42.96ZM146.727 43.104L150.231 42.144V23.76C150.231 22.928 150.167 22.384 150.039 22.128C149.911 21.84 149.575 21.584 149.031 21.36L146.631 19.968L146.775 15.648H172.839C173.063 19.008 173.175 22.288 173.175 25.488L169.623 25.728L166.215 21.504L158.967 21.312V29.136L169.191 28.272V35.664L158.967 34.56V42.288L166.935 42.144L170.631 37.92L174.183 38.16C174.055 41.52 173.815 44.8 173.463 48H146.967L146.727 43.104Z" fill="url(#paint0_linear_14_180)"/>
<path d="M180.765 53.1951L183.539 52.4351V37.9571C183.539 37.2984 183.489 36.8678 183.387 36.6651C183.286 36.4371 183.02 36.2344 182.589 36.0571L180.613 34.9551L180.841 31.8391C184.641 31.2818 188.302 31.0031 191.823 31.0031C194.559 31.0031 196.763 31.2818 198.435 31.8391C200.107 32.3711 201.323 33.2198 202.083 34.3851C202.869 35.5251 203.261 37.0451 203.261 38.9451C203.261 40.5158 202.856 41.8964 202.045 43.0871C201.809 43.4265 201.544 43.7433 201.25 44.0375C200.534 44.7537 199.647 45.3362 198.587 45.7851L204.667 55.5891L204.629 57.0711H197.713L192.089 46.9251L190.417 46.8871V51.1431C190.417 51.7511 190.455 52.1438 190.531 52.3211C190.633 52.4731 190.861 52.6504 191.215 52.8531L192.849 53.8031L192.697 57.0711H180.955L180.765 53.1951ZM192.849 42.6311C194.192 42.6311 195.18 42.5044 195.813 42.2511C196.067 41.3391 196.193 40.2498 196.193 38.9831C196.193 37.7164 195.915 36.8171 195.357 36.2851C194.825 35.7531 193.926 35.4871 192.659 35.4871C191.95 35.4871 191.228 35.5251 190.493 35.6011V42.4031C191.152 42.5551 191.937 42.6311 192.849 42.6311Z" fill="#74A7FE"/>
<path d="M218.417 57.6031C214.212 57.6031 211.07 56.5391 208.993 54.4111C206.941 52.2831 205.915 49.0531 205.915 44.7211C205.915 41.9091 206.434 39.4771 207.473 37.4251C208.056 36.2593 208.778 35.2451 209.64 34.3825C210.315 33.708 211.074 33.1262 211.919 32.6371C213.844 31.5224 216.137 30.9651 218.797 30.9651C227.258 30.9651 231.489 35.2844 231.489 43.9231C231.489 46.7604 230.97 49.2051 229.931 51.2571C229.377 52.3506 228.691 53.3074 227.871 54.1276C227.153 54.8464 226.332 55.4603 225.409 55.9691C223.458 57.0584 221.128 57.6031 218.417 57.6031ZM219.215 52.3591C220.659 52.3591 222.04 51.9918 223.357 51.2571C223.636 50.4718 223.851 49.4964 224.003 48.3311C224.155 47.1404 224.231 45.9751 224.231 44.8351C224.231 42.0231 223.699 39.8951 222.635 38.4511C221.596 37.0071 220.064 36.2851 218.037 36.2851C216.593 36.2851 215.2 36.5511 213.857 37.0831C213.578 37.5644 213.363 38.3624 213.211 39.4771C213.059 40.5664 212.983 41.8204 212.983 43.2391C212.983 46.1778 213.515 48.4324 214.579 50.0031C215.643 51.5738 217.188 52.3591 219.215 52.3591Z" fill="#74A7FE"/>
<path d="M242.112 57.5271C239.326 57.5271 236.501 57.0964 233.638 56.2351C233.765 53.7271 233.968 51.3964 234.246 49.2431L237.172 48.6731L239.072 51.9031C240.592 52.4351 241.935 52.7011 243.1 52.7011C243.506 52.7011 244.367 52.5871 245.684 52.3591C245.735 51.8524 245.76 51.5104 245.76 51.3331C245.76 50.7251 245.659 50.2691 245.456 49.9651C245.254 49.6358 244.81 49.2811 244.126 48.9011C243.442 48.4958 242.214 47.9004 240.44 47.1151C238.262 46.0511 236.691 44.9111 235.728 43.6951C234.766 42.4538 234.284 40.9971 234.284 39.3251C234.284 36.9888 234.995 35.1094 236.417 33.687C236.583 33.5208 236.759 33.3608 236.944 33.2071C238.718 31.7378 241.15 31.0031 244.24 31.0031C245.735 31.0031 247.217 31.1551 248.686 31.4591C250.181 31.7378 251.486 32.1304 252.6 32.6371C252.55 34.0558 252.436 35.8164 252.258 37.9191L252.144 39.5531L249.37 39.9711L246.482 36.2851C245.57 36.0064 244.43 35.8671 243.062 35.8671C242.201 35.8671 241.555 35.9431 241.124 36.0951C240.998 36.6018 240.934 36.9944 240.934 37.2731C240.934 37.8304 241.074 38.3244 241.352 38.7551C241.631 39.1604 242.125 39.5911 242.834 40.0471C243.544 40.4778 244.595 41.0224 245.988 41.6811C248.015 42.6438 249.548 43.4924 250.586 44.2271C251.625 44.9618 252.347 45.7344 252.752 46.5451C253.183 47.3304 253.398 48.2931 253.398 49.4331C253.398 51.4845 252.729 53.1799 251.39 54.5195C251.092 54.8176 250.761 55.0982 250.396 55.3611C248.395 56.8051 245.634 57.5271 242.112 57.5271Z" fill="#74A7FE"/>
<path d="M259.671 25.566C258.557 25.0593 257.252 24.6667 255.757 24.388L248.686 31.4591C250.181 31.7377 251.486 32.1304 252.6 32.6371L259.671 25.566Z" fill="#74A7FE"/>
<path d="M259.329 30.848C259.507 28.7453 259.621 26.9847 259.671 25.566L252.6 32.6371C252.55 34.0557 252.436 35.8164 252.258 37.9191L259.329 30.848Z" fill="#74A7FE"/>
<path d="M255.757 24.388C254.288 24.084 252.806 23.932 251.311 23.932L244.24 31.0031C245.735 31.0031 247.217 31.1551 248.686 31.4591L255.757 24.388Z" fill="#74A7FE"/>
<path d="M259.215 32.482L259.329 30.848L252.258 37.9191L252.144 39.5531L259.215 32.482Z" fill="#74A7FE"/>
<path d="M256.441 32.9L259.215 32.482L252.144 39.5531L249.37 39.9711L256.441 32.9Z" fill="#74A7FE"/>
<path d="M253.553 29.214L256.441 32.9L249.37 39.9711L246.482 36.2851L253.553 29.214Z" fill="#74A7FE"/>
<path d="M250.133 28.796C251.501 28.796 252.641 28.9354 253.553 29.214L246.482 36.2851C245.57 36.0064 244.43 35.8671 243.062 35.8671L250.133 28.796Z" fill="#74A7FE"/>
<path d="M251.311 23.932C248.221 23.932 245.789 24.6667 244.015 26.136L236.944 33.2071C238.718 31.7377 241.15 31.0031 244.24 31.0031L251.311 23.932Z" fill="#74A7FE"/>
<path d="M259.823 39.474C259.418 38.6633 258.696 37.8907 257.657 37.156L250.586 44.2271C251.625 44.9617 252.347 45.7344 252.752 46.5451L259.823 39.474Z" fill="#74A7FE"/>
<path d="M248.195 29.024C248.626 28.872 249.272 28.796 250.133 28.796L243.062 35.8671C242.201 35.8671 241.555 35.9431 241.124 36.0951L248.195 29.024Z" fill="#74A7FE"/>
<path d="M257.657 37.156C256.619 36.4213 255.086 35.5727 253.059 34.61L245.988 41.6811C248.015 42.6438 249.548 43.4924 250.586 44.2271L257.657 37.156Z" fill="#74A7FE"/>
<path d="M260.469 42.362C260.469 41.222 260.254 40.2593 259.823 39.474L252.752 46.5451C253.183 47.3304 253.398 48.2931 253.398 49.4331L260.469 42.362Z" fill="#74A7FE"/>
<path d="M248.005 30.202C248.005 29.9234 248.069 29.5307 248.195 29.024L241.124 36.0951C240.998 36.6018 240.934 36.9944 240.934 37.2731L248.005 30.202Z" fill="#74A7FE"/>
<path d="M253.059 34.61C251.666 33.9513 250.615 33.4067 249.905 32.976L242.834 40.0471C243.544 40.4777 244.595 41.0224 245.988 41.6811L253.059 34.61Z" fill="#74A7FE"/>
<path d="M244.015 26.136C243.83 26.2898 243.654 26.4497 243.488 26.6159L236.419 33.6843C236.585 33.5191 236.76 33.36 236.944 33.2071L244.015 26.136Z" fill="#74A7FE"/>
<path d="M248.423 31.684C248.145 31.2534 248.005 30.7594 248.005 30.202L240.934 37.2731C240.934 37.8304 241.074 38.3244 241.352 38.7551L248.423 31.684Z" fill="#74A7FE"/>
<path d="M249.905 32.976C249.196 32.52 248.702 32.0894 248.423 31.684L241.352 38.7551C241.631 39.1604 242.125 39.5911 242.834 40.0471L249.905 32.976Z" fill="#74A7FE"/>
<path d="M258.461 47.4484C259.8 46.1088 260.469 44.4134 260.469 42.362L253.398 49.4331C253.398 51.4844 252.729 53.1799 251.39 54.5194L258.461 47.4484Z" fill="#74A7FE"/>
<path d="M243.488 26.6159C242.066 28.0383 241.355 29.9177 241.355 32.254L234.284 39.3251C234.284 36.9888 234.995 35.1094 236.417 33.687L243.488 26.6159Z" fill="#74A7FE"/>
<path d="M257.467 48.29C257.831 48.0278 258.161 47.7481 258.458 47.4508L251.39 54.5194C251.092 54.8176 250.761 55.0982 250.396 55.3611L257.467 48.29Z" fill="#74A7FE"/>
<path d="M251.197 41.83C251.881 42.21 252.325 42.5647 252.527 42.894L245.456 49.9651C245.254 49.6358 244.81 49.2811 244.126 48.9011L251.197 41.83Z" fill="#74A7FE"/>
<path d="M252.527 42.894C252.73 43.198 252.831 43.654 252.831 44.262L245.76 51.3331C245.76 50.7251 245.659 50.2691 245.456 49.9651L252.527 42.894Z" fill="#74A7FE"/>
<path d="M247.511 40.044C249.285 40.8293 250.513 41.4247 251.197 41.83L244.126 48.9011C243.442 48.4957 242.214 47.9004 240.44 47.1151L247.511 40.044Z" fill="#74A7FE"/>
<path d="M252.831 44.262C252.831 44.4394 252.806 44.7814 252.755 45.288L245.684 52.3591C245.735 51.8524 245.76 51.5104 245.76 51.3331L252.831 44.262Z" fill="#74A7FE"/>
<path d="M241.355 32.254C241.355 33.926 241.837 35.3827 242.799 36.624L235.728 43.6951C234.766 42.4538 234.284 40.9971 234.284 39.3251L241.355 32.254Z" fill="#74A7FE"/>
<path d="M242.799 36.624C243.762 37.84 245.333 38.98 247.511 40.044L240.44 47.1151C238.262 46.0511 236.691 44.9111 235.728 43.6951L242.799 36.624Z" fill="#74A7FE"/>
<path d="M252.755 45.288C251.438 45.516 250.577 45.63 250.171 45.63L243.1 52.7011C243.506 52.7011 244.367 52.5871 245.684 52.3591L252.755 45.288Z" fill="#74A7FE"/>
<path d="M249.183 50.456C252.705 50.456 255.466 49.734 257.467 48.29L250.396 55.3611C248.395 56.8051 245.634 57.5271 242.112 57.5271L249.183 50.456Z" fill="#74A7FE"/>
<path d="M250.171 45.63C249.006 45.63 247.663 45.364 246.143 44.832L239.072 51.9031C240.592 52.4351 241.935 52.7011 243.1 52.7011L250.171 45.63Z" fill="#74A7FE"/>
<path d="M246.143 44.832L244.243 41.602L237.172 48.6731L239.072 51.9031L246.143 44.832Z" fill="#74A7FE"/>
<path d="M238.56 36.852C238.56 28.2133 234.329 23.894 225.868 23.894L218.797 30.9651C227.258 30.9651 231.489 35.2844 231.489 43.9231L238.56 36.852Z" fill="#74A7FE"/>
<path d="M244.243 41.602L241.317 42.172L234.246 49.2431L237.172 48.6731L244.243 41.602Z" fill="#74A7FE"/>
<path d="M225.868 23.894C223.208 23.894 220.915 24.4513 218.99 25.566L211.919 32.6371C213.844 31.5224 216.137 30.9651 218.797 30.9651L225.868 23.894Z" fill="#74A7FE"/>
<path d="M237.002 44.186C238.041 42.134 238.56 39.6894 238.56 36.852L231.489 43.9231C231.489 46.7604 230.97 49.2051 229.931 51.2571L237.002 44.186Z" fill="#74A7FE"/>
<path d="M225.108 29.214C227.135 29.214 228.667 29.936 229.706 31.38L222.635 38.4511C221.596 37.0071 220.064 36.2851 218.037 36.2851L225.108 29.214Z" fill="#74A7FE"/>
<path d="M229.706 31.38C230.77 32.824 231.302 34.952 231.302 37.764L224.231 44.8351C224.231 42.0231 223.699 39.8951 222.635 38.4511L229.706 31.38Z" fill="#74A7FE"/>
<path d="M241.317 42.172C241.039 44.3253 240.836 46.656 240.709 49.164L233.638 56.2351C233.765 53.7271 233.968 51.3964 234.246 49.2431L241.317 42.172Z" fill="#74A7FE"/>
<path d="M240.709 49.164C243.572 50.0253 246.397 50.456 249.183 50.456L242.112 57.5271C239.326 57.5271 236.501 57.0964 233.638 56.2351L240.709 49.164Z" fill="#74A7FE"/>
<path d="M220.928 30.012C222.271 29.48 223.664 29.214 225.108 29.214L218.037 36.2851C216.593 36.2851 215.2 36.5511 213.857 37.0831L220.928 30.012Z" fill="#74A7FE"/>
<path d="M231.302 37.764C231.302 38.904 231.226 40.0693 231.074 41.26L224.003 48.3311C224.155 47.1404 224.231 45.9751 224.231 44.8351L231.302 37.764Z" fill="#74A7FE"/>
<path d="M218.99 25.566C218.145 26.0551 217.386 26.6369 216.711 27.3114L209.645 34.3783C210.318 33.7056 211.076 33.1252 211.919 32.6371L218.99 25.566Z" fill="#74A7FE"/>
<path d="M234.942 47.0565C235.762 46.2364 236.448 45.2795 237.002 44.186L229.931 51.2571C229.377 52.3506 228.691 53.3074 227.871 54.1276L234.942 47.0565Z" fill="#74A7FE"/>
<path d="M220.282 32.406C220.434 31.2914 220.649 30.4934 220.928 30.012L213.857 37.0831C213.578 37.5644 213.363 38.3624 213.211 39.4771L220.282 32.406Z" fill="#74A7FE"/>
<path d="M231.074 41.26C230.922 42.4253 230.707 43.4007 230.428 44.186L223.357 51.2571C223.636 50.4717 223.851 49.4964 224.003 48.3311L231.074 41.26Z" fill="#74A7FE"/>
<path d="M216.711 27.3114C215.849 28.174 215.127 29.1882 214.544 30.354L207.473 37.4251C208.056 36.2593 208.778 35.2451 209.64 34.3825L216.711 27.3114Z" fill="#74A7FE"/>
<path d="M220.054 36.168C220.054 34.7493 220.13 33.4953 220.282 32.406L213.211 39.4771C213.059 40.5664 212.983 41.8204 212.983 43.2391L220.054 36.168Z" fill="#74A7FE"/>
<path d="M232.48 48.898C233.401 48.3901 234.221 47.7776 234.938 47.0604L227.871 54.1276C227.153 54.8464 226.332 55.4602 225.409 55.9691L232.48 48.898Z" fill="#74A7FE"/>
<path d="M230.428 44.186C229.111 44.9207 227.73 45.288 226.286 45.288L219.215 52.3591C220.659 52.3591 222.04 51.9917 223.357 51.2571L230.428 44.186Z" fill="#74A7FE"/>
<path d="M221.65 42.932C220.586 41.3613 220.054 39.1067 220.054 36.168L212.983 43.2391C212.983 46.1777 213.515 48.4324 214.579 50.0031L221.65 42.932Z" fill="#74A7FE"/>
<path d="M209.154 27.314C208.394 26.1487 207.178 25.3 205.506 24.768L198.435 31.8391C200.107 32.3711 201.323 33.2197 202.083 34.3851L209.154 27.314Z" fill="#74A7FE"/>
<path d="M210.332 31.874C210.332 29.974 209.94 28.454 209.154 27.314L202.083 34.3851C202.869 35.5251 203.261 37.0451 203.261 38.9451L210.332 31.874Z" fill="#74A7FE"/>
<path d="M226.286 45.288C224.259 45.288 222.714 44.5027 221.65 42.932L214.579 50.0031C215.643 51.5737 217.188 52.3591 219.215 52.3591L226.286 45.288Z" fill="#74A7FE"/>
<path d="M214.544 30.354C213.505 32.406 212.986 34.838 212.986 37.65L205.915 44.7211C205.915 41.9091 206.434 39.4771 207.473 37.4251L214.544 30.354Z" fill="#74A7FE"/>
<path d="M225.488 50.532C228.199 50.532 230.529 49.9873 232.48 48.898L225.409 55.9691C223.458 57.0584 221.128 57.6031 218.417 57.6031L225.488 50.532Z" fill="#74A7FE"/>
<path d="M205.506 24.768C203.834 24.2107 201.63 23.932 198.894 23.932L191.823 31.0031C194.559 31.0031 196.763 31.2817 198.435 31.8391L205.506 24.768Z" fill="#74A7FE"/>
<path d="M209.116 36.016C209.927 34.8254 210.332 33.4447 210.332 31.874L203.261 38.9451C203.261 40.5158 202.856 41.8964 202.045 43.0871L209.116 36.016Z" fill="#74A7FE"/>
<path d="M202.428 29.214C202.986 29.746 203.264 30.6454 203.264 31.912L196.193 38.9831C196.193 37.7164 195.915 36.8171 195.357 36.2851L202.428 29.214Z" fill="#74A7FE"/>
<path d="M199.73 28.416C200.997 28.416 201.896 28.682 202.428 29.214L195.357 36.2851C194.825 35.7531 193.926 35.4871 192.659 35.4871L199.73 28.416Z" fill="#74A7FE"/>
<path d="M208.321 36.9665C208.615 36.6722 208.88 36.3554 209.116 36.016L202.045 43.0871C201.809 43.4265 201.544 43.7433 201.25 44.0375L208.321 36.9665Z" fill="#74A7FE"/>
<path d="M212.986 37.65C212.986 41.982 214.012 45.212 216.064 47.34L208.993 54.4111C206.941 52.2831 205.915 49.0531 205.915 44.7211L212.986 37.65Z" fill="#74A7FE"/>
<path d="M216.064 47.34C218.141 49.468 221.283 50.532 225.488 50.532L218.417 57.6031C214.212 57.6031 211.07 56.5391 208.993 54.4111L216.064 47.34Z" fill="#74A7FE"/>
<path d="M197.564 28.53C198.299 28.454 199.021 28.416 199.73 28.416L192.659 35.4871C191.95 35.4871 191.228 35.5251 190.493 35.6011L197.564 28.53Z" fill="#74A7FE"/>
<path d="M203.264 31.912C203.264 33.1787 203.138 34.268 202.884 35.18L195.813 42.2511C196.067 41.3391 196.193 40.2498 196.193 38.9831L203.264 31.912Z" fill="#74A7FE"/>
<path d="M205.658 38.714C206.717 38.2657 207.603 37.684 208.319 36.9691L201.25 44.0375C200.534 44.7537 199.647 45.3362 198.587 45.7851L205.658 38.714Z" fill="#74A7FE"/>
<path d="M198.894 23.932C195.373 23.932 191.712 24.2107 187.912 24.768L180.841 31.8391C184.641 31.2817 188.302 31.0031 191.823 31.0031L198.894 23.932Z" fill="#74A7FE"/>
<path d="M202.884 35.18C202.251 35.4334 201.263 35.56 199.92 35.56L192.849 42.6311C194.192 42.6311 195.18 42.5044 195.813 42.2511L202.884 35.18Z" fill="#74A7FE"/>
<path d="M197.564 35.332V28.53L190.493 35.6011V42.4031L197.564 35.332Z" fill="#74A7FE"/>
<path d="M211.738 48.518L205.658 38.714L198.587 45.7851L204.667 55.5891L211.738 48.518Z" fill="#74A7FE"/>
<path d="M199.92 35.56C199.008 35.56 198.223 35.484 197.564 35.332L190.493 42.4031C191.152 42.5551 191.937 42.6311 192.849 42.6311L199.92 35.56Z" fill="#74A7FE"/>
<path d="M211.7 50L211.738 48.518L204.667 55.5891L204.629 57.0711L211.7 50Z" fill="#74A7FE"/>
<path d="M189.66 28.986C190.091 29.1634 190.357 29.366 190.458 29.594L183.387 36.6651C183.286 36.4371 183.02 36.2344 182.589 36.0571L189.66 28.986Z" fill="#74A7FE"/>
<path d="M190.458 29.594C190.56 29.7967 190.61 30.2274 190.61 30.886L183.539 37.9571C183.539 37.2984 183.489 36.8678 183.387 36.6651L190.458 29.594Z" fill="#74A7FE"/>
<path d="M187.684 27.884L189.66 28.986L182.589 36.0571L180.613 34.9551L187.684 27.884Z" fill="#74A7FE"/>
<path d="M197.488 39.816L199.16 39.854L192.089 46.9251L190.417 46.8871L197.488 39.816Z" fill="#74A7FE"/>
<path d="M204.784 50H211.7L204.629 57.0711H197.713L204.784 50Z" fill="#74A7FE"/>
<path d="M199.16 39.854L204.784 50L197.713 57.0711L192.089 46.9251L199.16 39.854Z" fill="#74A7FE"/>
<path d="M197.488 44.072V39.816L190.417 46.8871V51.1431L197.488 44.072Z" fill="#74A7FE"/>
<path d="M197.602 45.25C197.526 45.0727 197.488 44.68 197.488 44.072L190.417 51.1431C190.417 51.7511 190.455 52.1438 190.531 52.3211L197.602 45.25Z" fill="#74A7FE"/>
<path d="M199.92 46.732L198.286 45.782L191.215 52.8531L192.849 53.8031L199.92 46.732Z" fill="#74A7FE"/>
<path d="M190.61 30.886V45.364L183.539 52.4351V37.9571L190.61 30.886Z" fill="#74A7FE"/>
<path d="M198.286 45.782C197.932 45.5793 197.704 45.402 197.602 45.25L190.531 52.3211C190.633 52.4731 190.861 52.6504 191.215 52.8531L198.286 45.782Z" fill="#74A7FE"/>
<path d="M199.768 50L199.92 46.732L192.849 53.8031L192.697 57.0711L199.768 50Z" fill="#74A7FE"/>
<path d="M188.026 50H199.768L192.697 57.0711H180.955L188.026 50Z" fill="#74A7FE"/>
<path d="M190.61 45.364L187.836 46.124L180.765 53.1951L183.539 52.4351L190.61 45.364Z" fill="#74A7FE"/>
<path d="M187.836 46.124L190.61 45.364V30.886C190.61 30.2273 190.56 29.7967 190.458 29.594C190.357 29.366 190.091 29.1633 189.66 28.986L187.684 27.884L187.912 24.768C191.712 24.2107 195.373 23.932 198.894 23.932C201.63 23.932 203.834 24.2107 205.506 24.768C207.178 25.3 208.394 26.1487 209.154 27.314C209.94 28.454 210.332 29.974 210.332 31.874C210.332 33.4447 209.927 34.8253 209.116 36.016C208.306 37.1813 207.153 38.0807 205.658 38.714L211.738 48.518L211.7 50H204.784L199.16 39.854L197.488 39.816V44.072C197.488 44.68 197.526 45.0727 197.602 45.25C197.704 45.402 197.932 45.5793 198.286 45.782L199.92 46.732L199.768 50H188.026L187.836 46.124ZM199.92 35.56C201.263 35.56 202.251 35.4333 202.884 35.18C203.138 34.268 203.264 33.1787 203.264 31.912C203.264 30.6453 202.986 29.746 202.428 29.214C201.896 28.682 200.997 28.416 199.73 28.416C199.021 28.416 198.299 28.454 197.564 28.53V35.332C198.223 35.484 199.008 35.56 199.92 35.56ZM225.488 50.532C221.283 50.532 218.141 49.468 216.064 47.34C214.012 45.212 212.986 41.982 212.986 37.65C212.986 34.838 213.505 32.406 214.544 30.354C215.583 28.2767 217.065 26.6807 218.99 25.566C220.915 24.4513 223.208 23.894 225.868 23.894C234.329 23.894 238.56 28.2133 238.56 36.852C238.56 39.6893 238.041 42.134 237.002 44.186C235.963 46.238 234.456 47.8087 232.48 48.898C230.529 49.9873 228.199 50.532 225.488 50.532ZM226.286 45.288C227.73 45.288 229.111 44.9207 230.428 44.186C230.707 43.4007 230.922 42.4253 231.074 41.26C231.226 40.0693 231.302 38.904 231.302 37.764C231.302 34.952 230.77 32.824 229.706 31.38C228.667 29.936 227.135 29.214 225.108 29.214C223.664 29.214 222.271 29.48 220.928 30.012C220.649 30.4933 220.434 31.2913 220.282 32.406C220.13 33.4953 220.054 34.7493 220.054 36.168C220.054 39.1067 220.586 41.3613 221.65 42.932C222.714 44.5027 224.259 45.288 226.286 45.288ZM249.183 50.456C246.397 50.456 243.572 50.0253 240.709 49.164C240.836 46.656 241.039 44.3253 241.317 42.172L244.243 41.602L246.143 44.832C247.663 45.364 249.006 45.63 250.171 45.63C250.577 45.63 251.438 45.516 252.755 45.288C252.806 44.7813 252.831 44.4393 252.831 44.262C252.831 43.654 252.73 43.198 252.527 42.894C252.325 42.5647 251.881 42.21 251.197 41.83C250.513 41.4247 249.285 40.8293 247.511 40.044C245.333 38.98 243.762 37.84 242.799 36.624C241.837 35.3827 241.355 33.926 241.355 32.254C241.355 29.6447 242.242 27.6053 244.015 26.136C245.789 24.6667 248.221 23.932 251.311 23.932C252.806 23.932 254.288 24.084 255.757 24.388C257.252 24.6667 258.557 25.0593 259.671 25.566C259.621 26.9847 259.507 28.7453 259.329 30.848L259.215 32.482L256.441 32.9L253.553 29.214C252.641 28.9353 251.501 28.796 250.133 28.796C249.272 28.796 248.626 28.872 248.195 29.024C248.069 29.5307 248.005 29.9233 248.005 30.202C248.005 30.7593 248.145 31.2533 248.423 31.684C248.702 32.0893 249.196 32.52 249.905 32.976C250.615 33.4067 251.666 33.9513 253.059 34.61C255.086 35.5727 256.619 36.4213 257.657 37.156C258.696 37.8907 259.418 38.6633 259.823 39.474C260.254 40.2593 260.469 41.222 260.469 42.362C260.469 44.87 259.469 46.846 257.467 48.29C255.466 49.734 252.705 50.456 249.183 50.456Z" fill="url(#paint1_linear_14_180)"/>
<defs>
<linearGradient id="paint0_linear_14_180" x1="90.8924" y1="0" x2="90.8924" y2="87" gradientUnits="userSpaceOnUse">
<stop stop-color="#F98213"/>
<stop offset="1" stop-color="#F42500"/>
</linearGradient>
<linearGradient id="paint1_linear_14_180" x1="223.892" y1="12" x2="223.892" y2="99" gradientUnits="userSpaceOnUse">
<stop stop-color="#137EF9"/>
<stop offset="1" stop-color="#F42500"/>
</linearGradient>
</defs>
</svg>
